<svg width="530" height="224" viewBox="0 0 530 224" fill="none" xmlns="http://www.w3.org/2000/svg">
<rect width="530" height="224" fill="#F5F5F5"/>
<rect x="4.5" y="4.5" width="521" height="215" rx="4.5" fill="white" stroke="#00A859" stroke-width="9" stroke-dasharray="2.5 2.5"/>
<path d="M147.775 45.256H156.001V46.876H149.503V50.674H155.551V52.294H149.503V56.38H156.325V58H147.775V45.256ZM158.365 49.468H159.985V50.782H160.021C160.225 50.326 160.579 49.96 161.083 49.684C161.587 49.396 162.169 49.252 162.829 49.252C163.237 49.252 163.627 49.318 163.999 49.45C164.383 49.57 164.713 49.762 164.989 50.026C165.277 50.29 165.505 50.632 165.673 51.052C165.841 51.46 165.925 51.946 165.925 52.51V58H164.305V52.96C164.305 52.564 164.251 52.228 164.143 51.952C164.035 51.664 163.891 51.436 163.711 51.268C163.531 51.088 163.321 50.962 163.081 50.89C162.853 50.806 162.613 50.764 162.361 50.764C162.025 50.764 161.713 50.818 161.425 50.926C161.137 51.034 160.885 51.208 160.669 51.448C160.453 51.676 160.285 51.97 160.165 52.33C160.045 52.69 159.985 53.116 159.985 53.608V58H158.365V49.468ZM172.939 50.872H170.617V54.742C170.617 54.982 170.623 55.222 170.635 55.462C170.647 55.69 170.689 55.9 170.761 56.092C170.845 56.272 170.965 56.422 171.121 56.542C171.289 56.65 171.529 56.704 171.841 56.704C172.033 56.704 172.231 56.686 172.435 56.65C172.639 56.614 172.825 56.548 172.993 56.452V57.928C172.801 58.036 172.549 58.108 172.237 58.144C171.937 58.192 171.703 58.216 171.535 58.216C170.911 58.216 170.425 58.132 170.077 57.964C169.741 57.784 169.489 57.556 169.321 57.28C169.165 57.004 169.069 56.698 169.033 56.362C169.009 56.014 168.997 55.666 168.997 55.318V50.872H167.125V49.468H168.997V47.074H170.617V49.468H172.939V50.872ZM176.253 54.328C176.253 54.7 176.331 55.042 176.487 55.354C176.655 55.654 176.871 55.912 177.135 56.128C177.399 56.344 177.705 56.512 178.053 56.632C178.401 56.752 178.761 56.812 179.133 56.812C179.637 56.812 180.075 56.698 180.447 56.47C180.819 56.23 181.161 55.918 181.473 55.534L182.697 56.47C181.797 57.634 180.537 58.216 178.917 58.216C178.245 58.216 177.633 58.102 177.081 57.874C176.541 57.646 176.079 57.334 175.695 56.938C175.323 56.53 175.035 56.056 174.831 55.516C174.627 54.964 174.525 54.37 174.525 53.734C174.525 53.098 174.633 52.51 174.849 51.97C175.077 51.418 175.383 50.944 175.767 50.548C176.163 50.14 176.631 49.822 177.171 49.594C177.711 49.366 178.299 49.252 178.935 49.252C179.691 49.252 180.327 49.384 180.843 49.648C181.371 49.912 181.803 50.26 182.139 50.692C182.475 51.112 182.715 51.592 182.859 52.132C183.015 52.66 183.093 53.2 183.093 53.752V54.328H176.253ZM181.365 53.032C181.353 52.672 181.293 52.342 181.185 52.042C181.089 51.742 180.939 51.484 180.735 51.268C180.531 51.04 180.273 50.866 179.961 50.746C179.661 50.614 179.307 50.548 178.899 50.548C178.503 50.548 178.137 50.626 177.801 50.782C177.477 50.926 177.201 51.118 176.973 51.358C176.745 51.598 176.565 51.868 176.433 52.168C176.313 52.456 176.253 52.744 176.253 53.032H181.365ZM185.031 49.468H186.651V50.782H186.687C186.795 50.554 186.939 50.35 187.119 50.17C187.299 49.978 187.497 49.816 187.713 49.684C187.941 49.552 188.187 49.45 188.451 49.378C188.715 49.294 188.979 49.252 189.243 49.252C189.507 49.252 189.747 49.288 189.963 49.36L189.891 51.106C189.759 51.07 189.627 51.04 189.495 51.016C189.363 50.992 189.231 50.98 189.099 50.98C188.307 50.98 187.701 51.202 187.281 51.646C186.861 52.09 186.651 52.78 186.651 53.716V58H185.031V49.468ZM200.123 52.564L195.299 45.256H197.513L200.987 50.854L204.569 45.256H206.675L201.851 52.564V58H200.123V52.564ZM207.034 53.734C207.034 54.166 207.1 54.568 207.232 54.94C207.364 55.3 207.55 55.612 207.79 55.876C208.03 56.128 208.324 56.332 208.672 56.488C209.02 56.632 209.41 56.704 209.842 56.704C210.274 56.704 210.664 56.632 211.012 56.488C211.36 56.332 211.654 56.128 211.894 55.876C212.134 55.612 212.32 55.3 212.452 54.94C212.584 54.568 212.65 54.166 212.65 53.734C212.65 53.302 212.584 52.906 212.452 52.546C212.32 52.174 212.134 51.862 211.894 51.61C211.654 51.346 211.36 51.142 211.012 50.998C210.664 50.842 210.274 50.764 209.842 50.764C209.41 50.764 209.02 50.842 208.672 50.998C208.324 51.142 208.03 51.346 207.79 51.61C207.55 51.862 207.364 52.174 207.232 52.546C207.1 52.906 207.034 53.302 207.034 53.734ZM205.306 53.734C205.306 53.11 205.42 52.528 205.648 51.988C205.888 51.448 206.212 50.974 206.62 50.566C207.028 50.158 207.508 49.84 208.06 49.612C208.612 49.372 209.206 49.252 209.842 49.252C210.478 49.252 211.072 49.372 211.624 49.612C212.176 49.84 212.656 50.158 213.064 50.566C213.472 50.974 213.79 51.448 214.018 51.988C214.258 52.528 214.378 53.11 214.378 53.734C214.378 54.358 214.258 54.946 214.018 55.498C213.79 56.038 213.472 56.512 213.064 56.92C212.656 57.316 212.176 57.634 211.624 57.874C211.072 58.102 210.478 58.216 209.842 58.216C209.206 58.216 208.612 58.102 208.06 57.874C207.508 57.634 207.028 57.316 206.62 56.92C206.212 56.512 205.888 56.038 205.648 55.498C205.42 54.946 205.306 54.358 205.306 53.734ZM223.968 58H222.348V56.686H222.312C222.108 57.142 221.754 57.514 221.25 57.802C220.746 58.078 220.164 58.216 219.504 58.216C219.084 58.216 218.688 58.15 218.316 58.018C217.944 57.898 217.614 57.706 217.326 57.442C217.05 57.178 216.828 56.842 216.66 56.434C216.492 56.014 216.408 55.522 216.408 54.958V49.468H218.028V54.508C218.028 54.904 218.082 55.246 218.19 55.534C218.298 55.81 218.442 56.038 218.622 56.218C218.802 56.386 219.006 56.512 219.234 56.596C219.474 56.668 219.72 56.704 219.972 56.704C220.308 56.704 220.62 56.65 220.908 56.542C221.196 56.434 221.448 56.266 221.664 56.038C221.88 55.798 222.048 55.498 222.168 55.138C222.288 54.778 222.348 54.352 222.348 53.86V49.468H223.968V58ZM226.41 49.468H228.03V50.782H228.066C228.174 50.554 228.318 50.35 228.498 50.17C228.678 49.978 228.876 49.816 229.092 49.684C229.32 49.552 229.566 49.45 229.83 49.378C230.094 49.294 230.358 49.252 230.622 49.252C230.886 49.252 231.126 49.288 231.342 49.36L231.27 51.106C231.138 51.07 231.006 51.04 230.874 51.016C230.742 50.992 230.61 50.98 230.478 50.98C229.686 50.98 229.08 51.202 228.66 51.646C228.24 52.09 228.03 52.78 228.03 53.716V58H226.41V49.468ZM247.369 48.01C247.009 47.542 246.553 47.182 246.001 46.93C245.449 46.678 244.879 46.552 244.291 46.552C243.571 46.552 242.917 46.69 242.329 46.966C241.753 47.23 241.255 47.596 240.835 48.064C240.427 48.532 240.109 49.084 239.881 49.72C239.653 50.344 239.539 51.016 239.539 51.736C239.539 52.408 239.647 53.044 239.863 53.644C240.079 54.244 240.391 54.772 240.799 55.228C241.207 55.684 241.705 56.044 242.293 56.308C242.881 56.572 243.547 56.704 244.291 56.704C245.023 56.704 245.665 56.554 246.217 56.254C246.769 55.954 247.237 55.534 247.621 54.994L249.079 56.092C248.983 56.224 248.815 56.416 248.575 56.668C248.335 56.908 248.017 57.154 247.621 57.406C247.225 57.646 246.745 57.856 246.181 58.036C245.629 58.228 244.987 58.324 244.255 58.324C243.247 58.324 242.335 58.132 241.519 57.748C240.715 57.364 240.025 56.86 239.449 56.236C238.885 55.612 238.453 54.91 238.153 54.13C237.853 53.338 237.703 52.54 237.703 51.736C237.703 50.752 237.865 49.846 238.189 49.018C238.513 48.178 238.963 47.458 239.539 46.858C240.127 46.246 240.829 45.772 241.645 45.436C242.461 45.1 243.361 44.932 244.345 44.932C245.185 44.932 246.007 45.094 246.811 45.418C247.627 45.742 248.293 46.24 248.809 46.912L247.369 48.01ZM250.791 50.512C251.247 50.092 251.775 49.78 252.375 49.576C252.975 49.36 253.575 49.252 254.175 49.252C254.799 49.252 255.333 49.33 255.777 49.486C256.233 49.642 256.605 49.852 256.893 50.116C257.181 50.38 257.391 50.686 257.523 51.034C257.667 51.37 257.739 51.724 257.739 52.096V56.452C257.739 56.752 257.745 57.028 257.757 57.28C257.769 57.532 257.787 57.772 257.811 58H256.371C256.335 57.568 256.317 57.136 256.317 56.704H256.281C255.921 57.256 255.495 57.646 255.003 57.874C254.511 58.102 253.941 58.216 253.293 58.216C252.897 58.216 252.519 58.162 252.159 58.054C251.799 57.946 251.481 57.784 251.205 57.568C250.941 57.352 250.731 57.088 250.575 56.776C250.419 56.452 250.341 56.08 250.341 55.66C250.341 55.108 250.461 54.646 250.701 54.274C250.953 53.902 251.289 53.602 251.709 53.374C252.141 53.134 252.639 52.966 253.203 52.87C253.779 52.762 254.391 52.708 255.039 52.708H256.227V52.348C256.227 52.132 256.185 51.916 256.101 51.7C256.017 51.484 255.891 51.292 255.723 51.124C255.555 50.944 255.345 50.806 255.093 50.71C254.841 50.602 254.541 50.548 254.193 50.548C253.881 50.548 253.605 50.578 253.365 50.638C253.137 50.698 252.927 50.776 252.735 50.872C252.543 50.956 252.369 51.058 252.213 51.178C252.057 51.298 251.907 51.412 251.763 51.52L250.791 50.512ZM255.363 53.896C254.979 53.896 254.583 53.92 254.175 53.968C253.779 54.004 253.413 54.082 253.077 54.202C252.753 54.322 252.483 54.49 252.267 54.706C252.063 54.922 251.961 55.198 251.961 55.534C251.961 56.026 252.123 56.38 252.447 56.596C252.783 56.812 253.233 56.92 253.797 56.92C254.241 56.92 254.619 56.848 254.931 56.704C255.243 56.548 255.495 56.35 255.687 56.11C255.879 55.87 256.017 55.606 256.101 55.318C256.185 55.018 256.227 54.724 256.227 54.436V53.896H255.363ZM260.089 49.468H261.709V50.782H261.745C261.853 50.554 261.997 50.35 262.177 50.17C262.357 49.978 262.555 49.816 262.771 49.684C262.999 49.552 263.245 49.45 263.509 49.378C263.773 49.294 264.037 49.252 264.301 49.252C264.565 49.252 264.805 49.288 265.021 49.36L264.949 51.106C264.817 51.07 264.685 51.04 264.553 51.016C264.421 50.992 264.289 50.98 264.157 50.98C263.365 50.98 262.759 51.202 262.339 51.646C261.919 52.09 261.709 52.78 261.709 53.716V58H260.089V49.468ZM272.175 45.256H276.657C277.473 45.256 278.145 45.37 278.673 45.598C279.201 45.814 279.615 46.096 279.915 46.444C280.227 46.78 280.443 47.164 280.563 47.596C280.683 48.016 280.743 48.424 280.743 48.82C280.743 49.216 280.683 49.63 280.563 50.062C280.443 50.482 280.227 50.866 279.915 51.214C279.615 51.55 279.201 51.832 278.673 52.06C278.145 52.276 277.473 52.384 276.657 52.384H273.903V58H272.175V45.256ZM273.903 50.872H276.171C276.507 50.872 276.837 50.848 277.161 50.8C277.497 50.74 277.791 50.638 278.043 50.494C278.307 50.35 278.517 50.146 278.673 49.882C278.829 49.606 278.907 49.252 278.907 48.82C278.907 48.388 278.829 48.04 278.673 47.776C278.517 47.5 278.307 47.29 278.043 47.146C277.791 47.002 277.497 46.906 277.161 46.858C276.837 46.798 276.507 46.768 276.171 46.768H273.903V50.872ZM282.557 44.392H284.177V58H282.557V44.392ZM286.791 50.512C287.247 50.092 287.775 49.78 288.375 49.576C288.975 49.36 289.575 49.252 290.175 49.252C290.799 49.252 291.333 49.33 291.777 49.486C292.233 49.642 292.605 49.852 292.893 50.116C293.181 50.38 293.391 50.686 293.523 51.034C293.667 51.37 293.739 51.724 293.739 52.096V56.452C293.739 56.752 293.745 57.028 293.757 57.28C293.769 57.532 293.787 57.772 293.811 58H292.371C292.335 57.568 292.317 57.136 292.317 56.704H292.281C291.921 57.256 291.495 57.646 291.003 57.874C290.511 58.102 289.941 58.216 289.293 58.216C288.897 58.216 288.519 58.162 288.159 58.054C287.799 57.946 287.481 57.784 287.205 57.568C286.941 57.352 286.731 57.088 286.575 56.776C286.419 56.452 286.341 56.08 286.341 55.66C286.341 55.108 286.461 54.646 286.701 54.274C286.953 53.902 287.289 53.602 287.709 53.374C288.141 53.134 288.639 52.966 289.203 52.87C289.779 52.762 290.391 52.708 291.039 52.708H292.227V52.348C292.227 52.132 292.185 51.916 292.101 51.7C292.017 51.484 291.891 51.292 291.723 51.124C291.555 50.944 291.345 50.806 291.093 50.71C290.841 50.602 290.541 50.548 290.193 50.548C289.881 50.548 289.605 50.578 289.365 50.638C289.137 50.698 288.927 50.776 288.735 50.872C288.543 50.956 288.369 51.058 288.213 51.178C288.057 51.298 287.907 51.412 287.763 51.52L286.791 50.512ZM291.363 53.896C290.979 53.896 290.583 53.92 290.175 53.968C289.779 54.004 289.413 54.082 289.077 54.202C288.753 54.322 288.483 54.49 288.267 54.706C288.063 54.922 287.961 55.198 287.961 55.534C287.961 56.026 288.123 56.38 288.447 56.596C288.783 56.812 289.233 56.92 289.797 56.92C290.241 56.92 290.619 56.848 290.931 56.704C291.243 56.548 291.495 56.35 291.687 56.11C291.879 55.87 292.017 55.606 292.101 55.318C292.185 55.018 292.227 54.724 292.227 54.436V53.896H291.363ZM300.661 50.872H298.339V54.742C298.339 54.982 298.345 55.222 298.357 55.462C298.369 55.69 298.411 55.9 298.483 56.092C298.567 56.272 298.687 56.422 298.843 56.542C299.011 56.65 299.251 56.704 299.563 56.704C299.755 56.704 299.953 56.686 300.157 56.65C300.361 56.614 300.547 56.548 300.715 56.452V57.928C300.523 58.036 300.271 58.108 299.959 58.144C299.659 58.192 299.425 58.216 299.257 58.216C298.633 58.216 298.147 58.132 297.799 57.964C297.463 57.784 297.211 57.556 297.043 57.28C296.887 57.004 296.791 56.698 296.755 56.362C296.731 56.014 296.719 55.666 296.719 55.318V50.872H294.847V49.468H296.719V47.074H298.339V49.468H300.661V50.872ZM303.975 54.328C303.975 54.7 304.053 55.042 304.209 55.354C304.377 55.654 304.593 55.912 304.857 56.128C305.121 56.344 305.427 56.512 305.775 56.632C306.123 56.752 306.483 56.812 306.855 56.812C307.359 56.812 307.797 56.698 308.169 56.47C308.541 56.23 308.883 55.918 309.195 55.534L310.419 56.47C309.519 57.634 308.259 58.216 306.639 58.216C305.967 58.216 305.355 58.102 304.803 57.874C304.263 57.646 303.801 57.334 303.417 56.938C303.045 56.53 302.757 56.056 302.553 55.516C302.349 54.964 302.247 54.37 302.247 53.734C302.247 53.098 302.355 52.51 302.571 51.97C302.799 51.418 303.105 50.944 303.489 50.548C303.885 50.14 304.353 49.822 304.893 49.594C305.433 49.366 306.021 49.252 306.657 49.252C307.413 49.252 308.049 49.384 308.565 49.648C309.093 49.912 309.525 50.26 309.861 50.692C310.197 51.112 310.437 51.592 310.581 52.132C310.737 52.66 310.815 53.2 310.815 53.752V54.328H303.975ZM309.087 53.032C309.075 52.672 309.015 52.342 308.907 52.042C308.811 51.742 308.661 51.484 308.457 51.268C308.253 51.04 307.995 50.866 307.683 50.746C307.383 50.614 307.029 50.548 306.621 50.548C306.225 50.548 305.859 50.626 305.523 50.782C305.199 50.926 304.923 51.118 304.695 51.358C304.467 51.598 304.287 51.868 304.155 52.168C304.035 52.456 303.975 52.744 303.975 53.032H309.087ZM318.177 45.256H320.445L327.465 55.732H327.501V45.256H329.229V58H327.033L319.941 47.524H319.905V58H318.177V45.256ZM339.649 58H338.029V56.686H337.993C337.789 57.142 337.435 57.514 336.931 57.802C336.427 58.078 335.845 58.216 335.185 58.216C334.765 58.216 334.369 58.15 333.997 58.018C333.625 57.898 333.295 57.706 333.007 57.442C332.731 57.178 332.509 56.842 332.341 56.434C332.173 56.014 332.089 55.522 332.089 54.958V49.468H333.709V54.508C333.709 54.904 333.763 55.246 333.871 55.534C333.979 55.81 334.123 56.038 334.303 56.218C334.483 56.386 334.687 56.512 334.915 56.596C335.155 56.668 335.401 56.704 335.653 56.704C335.989 56.704 336.301 56.65 336.589 56.542C336.877 56.434 337.129 56.266 337.345 56.038C337.561 55.798 337.729 55.498 337.849 55.138C337.969 54.778 338.029 54.352 338.029 53.86V49.468H339.649V58ZM342.091 49.468H343.603V50.8H343.639C343.675 50.68 343.765 50.53 343.909 50.35C344.065 50.17 344.257 50.002 344.485 49.846C344.725 49.678 345.001 49.54 345.313 49.432C345.637 49.312 345.991 49.252 346.375 49.252C347.011 49.252 347.545 49.384 347.977 49.648C348.409 49.912 348.763 50.308 349.039 50.836C349.315 50.308 349.705 49.912 350.209 49.648C350.713 49.384 351.223 49.252 351.739 49.252C352.399 49.252 352.939 49.36 353.359 49.576C353.779 49.792 354.109 50.08 354.349 50.44C354.589 50.788 354.751 51.19 354.835 51.646C354.931 52.09 354.979 52.552 354.979 53.032V58H353.359V53.248C353.359 52.924 353.335 52.612 353.287 52.312C353.251 52.012 353.167 51.748 353.035 51.52C352.903 51.292 352.717 51.112 352.477 50.98C352.237 50.836 351.919 50.764 351.523 50.764C350.743 50.764 350.185 51.004 349.849 51.484C349.513 51.964 349.345 52.582 349.345 53.338V58H347.725V53.536C347.725 53.128 347.701 52.756 347.653 52.42C347.617 52.084 347.533 51.796 347.401 51.556C347.281 51.304 347.101 51.112 346.861 50.98C346.633 50.836 346.321 50.764 345.925 50.764C345.637 50.764 345.355 50.824 345.079 50.944C344.815 51.052 344.581 51.22 344.377 51.448C344.173 51.676 344.011 51.97 343.891 52.33C343.771 52.678 343.711 53.092 343.711 53.572V58H342.091V49.468ZM357.419 44.392H359.039V50.692H359.075C359.363 50.248 359.777 49.9 360.317 49.648C360.857 49.384 361.433 49.252 362.045 49.252C362.705 49.252 363.299 49.366 363.827 49.594C364.367 49.822 364.823 50.14 365.195 50.548C365.579 50.944 365.873 51.418 366.077 51.97C366.281 52.51 366.383 53.098 366.383 53.734C366.383 54.37 366.281 54.958 366.077 55.498C365.873 56.038 365.579 56.512 365.195 56.92C364.823 57.328 364.367 57.646 363.827 57.874C363.299 58.102 362.705 58.216 362.045 58.216C361.469 58.216 360.905 58.09 360.353 57.838C359.813 57.586 359.387 57.232 359.075 56.776H359.039V58H357.419V44.392ZM361.847 56.704C362.279 56.704 362.669 56.632 363.017 56.488C363.365 56.332 363.659 56.128 363.899 55.876C364.139 55.612 364.325 55.3 364.457 54.94C364.589 54.568 364.655 54.166 364.655 53.734C364.655 53.302 364.589 52.906 364.457 52.546C364.325 52.174 364.139 51.862 363.899 51.61C363.659 51.346 363.365 51.142 363.017 50.998C362.669 50.842 362.279 50.764 361.847 50.764C361.415 50.764 361.025 50.842 360.677 50.998C360.329 51.142 360.035 51.346 359.795 51.61C359.555 51.862 359.369 52.174 359.237 52.546C359.105 52.906 359.039 53.302 359.039 53.734C359.039 54.166 359.105 54.568 359.237 54.94C359.369 55.3 359.555 55.612 359.795 55.876C360.035 56.128 360.329 56.332 360.677 56.488C361.025 56.632 361.415 56.704 361.847 56.704ZM369.647 54.328C369.647 54.7 369.725 55.042 369.881 55.354C370.049 55.654 370.265 55.912 370.529 56.128C370.793 56.344 371.099 56.512 371.447 56.632C371.795 56.752 372.155 56.812 372.527 56.812C373.031 56.812 373.469 56.698 373.841 56.47C374.213 56.23 374.555 55.918 374.867 55.534L376.091 56.47C375.191 57.634 373.931 58.216 372.311 58.216C371.639 58.216 371.027 58.102 370.475 57.874C369.935 57.646 369.473 57.334 369.089 56.938C368.717 56.53 368.429 56.056 368.225 55.516C368.021 54.964 367.919 54.37 367.919 53.734C367.919 53.098 368.027 52.51 368.243 51.97C368.471 51.418 368.777 50.944 369.161 50.548C369.557 50.14 370.025 49.822 370.565 49.594C371.105 49.366 371.693 49.252 372.329 49.252C373.085 49.252 373.721 49.384 374.237 49.648C374.765 49.912 375.197 50.26 375.533 50.692C375.869 51.112 376.109 51.592 376.253 52.132C376.409 52.66 376.487 53.2 376.487 53.752V54.328H369.647ZM374.759 53.032C374.747 52.672 374.687 52.342 374.579 52.042C374.483 51.742 374.333 51.484 374.129 51.268C373.925 51.04 373.667 50.866 373.355 50.746C373.055 50.614 372.701 50.548 372.293 50.548C371.897 50.548 371.531 50.626 371.195 50.782C370.871 50.926 370.595 51.118 370.367 51.358C370.139 51.598 369.959 51.868 369.827 52.168C369.707 52.456 369.647 52.744 369.647 53.032H374.759ZM378.425 49.468H380.045V50.782H380.081C380.189 50.554 380.333 50.35 380.513 50.17C380.693 49.978 380.891 49.816 381.107 49.684C381.335 49.552 381.581 49.45 381.845 49.378C382.109 49.294 382.373 49.252 382.637 49.252C382.901 49.252 383.141 49.288 383.357 49.36L383.285 51.106C383.153 51.07 383.021 51.04 382.889 51.016C382.757 50.992 382.625 50.98 382.493 50.98C381.701 50.98 381.095 51.202 380.675 51.646C380.255 52.09 380.045 52.78 380.045 53.716V58H378.425V49.468Z" fill="black"/>
<rect x="128" y="79" width="274" height="48" rx="5" fill="#D9D9D9" fill-opacity="0.3"/>
<path d="M201 94.84H209.9V96.4H202.68V100.84H209.42V102.4H202.68V107.44H210.26V109H201V94.84ZM221.916 108.58C221.916 110.287 221.476 111.58 220.596 112.46C219.729 113.353 218.469 113.8 216.816 113.8C215.896 113.8 215.062 113.667 214.316 113.4C213.582 113.133 212.882 112.673 212.216 112.02L213.336 110.74C213.829 111.273 214.349 111.673 214.896 111.94C215.456 112.22 216.096 112.36 216.816 112.36C217.509 112.36 218.082 112.253 218.536 112.04C219.002 111.84 219.369 111.56 219.636 111.2C219.902 110.853 220.089 110.453 220.196 110C220.302 109.547 220.356 109.073 220.356 108.58V107.38H220.316C219.942 107.98 219.456 108.42 218.856 108.7C218.256 108.98 217.642 109.12 217.016 109.12C216.282 109.12 215.609 109 214.996 108.76C214.382 108.52 213.856 108.187 213.416 107.76C212.976 107.333 212.636 106.827 212.396 106.24C212.156 105.653 212.036 105.013 212.036 104.32C212.036 103.56 212.156 102.873 212.396 102.26C212.636 101.647 212.969 101.133 213.396 100.72C213.836 100.293 214.362 99.9667 214.976 99.74C215.589 99.5133 216.269 99.4 217.016 99.4C217.336 99.4 217.656 99.44 217.976 99.52C218.296 99.5867 218.602 99.7 218.896 99.86C219.202 100.007 219.476 100.2 219.716 100.44C219.956 100.667 220.156 100.933 220.316 101.24H220.356V99.64H221.916V108.58ZM213.716 104.32C213.716 104.8 213.802 105.247 213.976 105.66C214.149 106.06 214.382 106.413 214.676 106.72C214.982 107.013 215.336 107.247 215.736 107.42C216.136 107.593 216.562 107.68 217.016 107.68C217.549 107.68 218.022 107.587 218.436 107.4C218.849 107.213 219.196 106.967 219.476 106.66C219.769 106.34 219.989 105.98 220.136 105.58C220.282 105.167 220.356 104.733 220.356 104.28C220.356 103.773 220.276 103.313 220.116 102.9C219.956 102.473 219.729 102.107 219.436 101.8C219.142 101.493 218.789 101.26 218.376 101.1C217.962 100.927 217.509 100.84 217.016 100.84C216.522 100.84 216.069 100.933 215.656 101.12C215.256 101.293 214.909 101.54 214.616 101.86C214.336 102.167 214.116 102.533 213.956 102.96C213.796 103.373 213.716 103.827 213.716 104.32ZM226.102 106.72C226.436 106.72 226.716 106.84 226.942 107.08C227.182 107.307 227.302 107.587 227.302 107.92C227.302 108.253 227.176 108.54 226.922 108.78C226.682 109.007 226.409 109.12 226.102 109.12C225.796 109.12 225.516 109.007 225.262 108.78C225.022 108.54 224.902 108.253 224.902 107.92C224.902 107.587 225.016 107.307 225.242 107.08C225.482 106.84 225.769 106.72 226.102 106.72ZM236.215 94.84H237.895V109H236.215V94.84ZM241.41 94.84H243.09V100.96H243.33L249.77 94.84H252.19L245.19 101.3L252.53 109H250.07L243.33 101.8H243.09V109H241.41V94.84ZM260.128 105.34C260.128 105.82 260.055 106.3 259.908 106.78C259.775 107.247 259.548 107.673 259.228 108.06C258.921 108.447 258.508 108.76 257.988 109C257.481 109.24 256.848 109.36 256.088 109.36C255.088 109.36 254.255 109.107 253.588 108.6C252.921 108.093 252.495 107.333 252.308 106.32L253.988 105.98C254.095 106.54 254.321 106.987 254.668 107.32C255.028 107.64 255.508 107.8 256.108 107.8C256.588 107.8 256.981 107.713 257.288 107.54C257.595 107.367 257.828 107.14 257.988 106.86C258.161 106.58 258.281 106.26 258.348 105.9C258.415 105.527 258.448 105.147 258.448 104.76V94.84H260.128V105.34ZM271.543 100.84H272.063C272.41 100.84 272.77 100.813 273.143 100.76C273.53 100.707 273.876 100.593 274.183 100.42C274.503 100.247 274.763 100 274.963 99.68C275.176 99.3467 275.283 98.9133 275.283 98.38C275.283 97.66 275.056 97.0933 274.603 96.68C274.163 96.2533 273.583 96.04 272.863 96.04C272.263 96.04 271.743 96.1733 271.303 96.44C270.863 96.7067 270.516 97.1 270.263 97.62L268.643 97C268.99 96.2 269.53 95.6 270.263 95.2C271.01 94.8 271.836 94.6 272.743 94.6C273.303 94.6 273.836 94.68 274.343 94.84C274.863 95 275.316 95.2333 275.703 95.54C276.09 95.8467 276.396 96.2333 276.623 96.7C276.85 97.1533 276.963 97.6867 276.963 98.3C276.963 99.0467 276.736 99.72 276.283 100.32C275.843 100.907 275.263 101.313 274.543 101.54V101.58C274.996 101.66 275.396 101.807 275.743 102.02C276.103 102.233 276.41 102.5 276.663 102.82C276.916 103.127 277.11 103.48 277.243 103.88C277.376 104.28 277.443 104.7 277.443 105.14C277.443 105.82 277.316 106.413 277.063 106.92C276.81 107.427 276.47 107.853 276.043 108.2C275.616 108.547 275.116 108.807 274.543 108.98C273.983 109.153 273.39 109.24 272.763 109.24C271.683 109.24 270.743 109.007 269.943 108.54C269.143 108.073 268.563 107.313 268.203 106.26L269.903 105.7C270.143 106.46 270.483 107 270.923 107.32C271.363 107.64 271.976 107.8 272.763 107.8C273.163 107.8 273.536 107.733 273.883 107.6C274.23 107.467 274.53 107.28 274.783 107.04C275.05 106.787 275.256 106.493 275.403 106.16C275.563 105.813 275.643 105.433 275.643 105.02C275.643 104.5 275.536 104.067 275.323 103.72C275.123 103.36 274.85 103.08 274.503 102.88C274.17 102.667 273.79 102.513 273.363 102.42C272.936 102.327 272.503 102.28 272.063 102.28H271.543V100.84ZM288.056 96.4H282.276L282.216 100.22C282.483 100.087 282.776 100 283.096 99.96C283.43 99.9067 283.743 99.88 284.036 99.88C284.716 99.88 285.33 100 285.876 100.24C286.436 100.467 286.916 100.793 287.316 101.22C287.716 101.633 288.023 102.127 288.236 102.7C288.45 103.26 288.556 103.873 288.556 104.54C288.556 105.247 288.43 105.893 288.176 106.48C287.936 107.053 287.596 107.547 287.156 107.96C286.73 108.36 286.216 108.673 285.616 108.9C285.03 109.127 284.39 109.24 283.696 109.24C282.616 109.24 281.743 109.007 281.076 108.54C280.423 108.073 279.903 107.447 279.516 106.66L281.196 106.02C281.436 106.553 281.783 106.987 282.236 107.32C282.703 107.64 283.236 107.8 283.836 107.8C284.263 107.8 284.656 107.727 285.016 107.58C285.39 107.42 285.71 107.2 285.976 106.92C286.256 106.627 286.476 106.28 286.636 105.88C286.796 105.48 286.876 105.033 286.876 104.54C286.876 104.02 286.783 103.56 286.596 103.16C286.423 102.76 286.176 102.427 285.856 102.16C285.55 101.88 285.183 101.673 284.756 101.54C284.33 101.393 283.87 101.32 283.376 101.32C282.896 101.32 282.403 101.407 281.896 101.58C281.39 101.74 280.923 101.947 280.496 102.2L280.636 94.84H288.056V96.4ZM299.169 96.4H293.389L293.329 100.22C293.596 100.087 293.889 100 294.209 99.96C294.543 99.9067 294.856 99.88 295.149 99.88C295.829 99.88 296.443 100 296.989 100.24C297.549 100.467 298.029 100.793 298.429 101.22C298.829 101.633 299.136 102.127 299.349 102.7C299.563 103.26 299.669 103.873 299.669 104.54C299.669 105.247 299.543 105.893 299.289 106.48C299.049 107.053 298.709 107.547 298.269 107.96C297.843 108.36 297.329 108.673 296.729 108.9C296.143 109.127 295.503 109.24 294.809 109.24C293.729 109.24 292.856 109.007 292.189 108.54C291.536 108.073 291.016 107.447 290.629 106.66L292.309 106.02C292.549 106.553 292.896 106.987 293.349 107.32C293.816 107.64 294.349 107.8 294.949 107.8C295.376 107.8 295.769 107.727 296.129 107.58C296.503 107.42 296.823 107.2 297.089 106.92C297.369 106.627 297.589 106.28 297.749 105.88C297.909 105.48 297.989 105.033 297.989 104.54C297.989 104.02 297.896 103.56 297.709 103.16C297.536 102.76 297.289 102.427 296.969 102.16C296.663 101.88 296.296 101.673 295.869 101.54C295.443 101.393 294.983 101.32 294.489 101.32C294.009 101.32 293.516 101.407 293.009 101.58C292.503 101.74 292.036 101.947 291.609 102.2L291.749 94.84H299.169V96.4ZM306.189 94.84H308.089L312.449 106.48H312.489L316.989 94.84H318.769L313.229 109H311.609L306.189 94.84ZM324.038 94.84H325.618L331.638 109H329.678L328.238 105.52H321.158L319.698 109H317.798L324.038 94.84ZM324.798 97H324.758L321.818 103.96H327.598L324.798 97Z" fill="black" fill-opacity="0.3"/>
<rect x="128" y="142" width="274" height="48" rx="5" fill="#00A859"/>
<path d="M245.941 162.104C245.728 161.795 245.44 161.571 245.077 161.432C244.725 161.283 244.352 161.208 243.957 161.208C243.722 161.208 243.493 161.235 243.269 161.288C243.056 161.341 242.858 161.427 242.677 161.544C242.506 161.661 242.368 161.816 242.261 162.008C242.154 162.189 242.101 162.408 242.101 162.664C242.101 163.048 242.234 163.341 242.501 163.544C242.768 163.747 243.098 163.923 243.493 164.072C243.888 164.221 244.32 164.365 244.789 164.504C245.258 164.643 245.69 164.835 246.085 165.08C246.48 165.325 246.81 165.651 247.077 166.056C247.344 166.461 247.477 167 247.477 167.672C247.477 168.28 247.365 168.813 247.141 169.272C246.917 169.72 246.613 170.093 246.229 170.392C245.856 170.691 245.418 170.915 244.917 171.064C244.416 171.213 243.888 171.288 243.333 171.288C242.629 171.288 241.952 171.171 241.301 170.936C240.65 170.701 240.09 170.307 239.621 169.752L241.141 168.28C241.386 168.653 241.706 168.947 242.101 169.16C242.506 169.363 242.933 169.464 243.381 169.464C243.616 169.464 243.85 169.432 244.085 169.368C244.32 169.304 244.533 169.208 244.725 169.08C244.917 168.952 245.072 168.792 245.189 168.6C245.306 168.397 245.365 168.168 245.365 167.912C245.365 167.496 245.232 167.176 244.965 166.952C244.698 166.728 244.368 166.541 243.973 166.392C243.578 166.232 243.146 166.083 242.677 165.944C242.208 165.805 241.776 165.619 241.381 165.384C240.986 165.139 240.656 164.819 240.389 164.424C240.122 164.019 239.989 163.48 239.989 162.808C239.989 162.221 240.106 161.715 240.341 161.288C240.586 160.861 240.901 160.509 241.285 160.232C241.68 159.944 242.128 159.731 242.629 159.592C243.13 159.453 243.642 159.384 244.165 159.384C244.762 159.384 245.338 159.475 245.893 159.656C246.458 159.837 246.965 160.136 247.413 160.552L245.941 162.104ZM256.409 171H254.585V169.768H254.553C254.371 170.152 254.094 170.488 253.721 170.776C253.347 171.053 252.841 171.192 252.201 171.192C251.689 171.192 251.251 171.112 250.889 170.952C250.537 170.781 250.249 170.557 250.025 170.28C249.801 169.992 249.641 169.667 249.545 169.304C249.449 168.941 249.401 168.563 249.401 168.168V163.32H251.321V167.208C251.321 167.421 251.331 167.661 251.353 167.928C251.374 168.184 251.427 168.429 251.513 168.664C251.609 168.888 251.747 169.08 251.929 169.24C252.121 169.389 252.387 169.464 252.729 169.464C253.049 169.464 253.315 169.411 253.529 169.304C253.753 169.197 253.934 169.053 254.073 168.872C254.222 168.691 254.329 168.483 254.393 168.248C254.457 168.013 254.489 167.768 254.489 167.512V163.32H256.409V171ZM258.588 158.904H260.508V164.296H260.556C260.652 164.168 260.775 164.04 260.924 163.912C261.073 163.773 261.255 163.645 261.468 163.528C261.681 163.411 261.927 163.315 262.204 163.24C262.481 163.165 262.801 163.128 263.164 163.128C263.708 163.128 264.209 163.235 264.668 163.448C265.127 163.651 265.516 163.933 265.836 164.296C266.167 164.659 266.423 165.085 266.604 165.576C266.785 166.067 266.876 166.595 266.876 167.16C266.876 167.725 266.791 168.253 266.62 168.744C266.449 169.235 266.199 169.661 265.868 170.024C265.537 170.387 265.137 170.675 264.668 170.888C264.199 171.091 263.671 171.192 263.084 171.192C262.54 171.192 262.033 171.085 261.564 170.872C261.095 170.659 260.721 170.317 260.444 169.848H260.412V171H258.588V158.904ZM264.956 167.16C264.956 166.861 264.903 166.573 264.796 166.296C264.7 166.019 264.551 165.773 264.348 165.56C264.156 165.347 263.921 165.176 263.644 165.048C263.367 164.92 263.052 164.856 262.7 164.856C262.348 164.856 262.033 164.92 261.756 165.048C261.479 165.176 261.239 165.347 261.036 165.56C260.844 165.773 260.695 166.019 260.588 166.296C260.492 166.573 260.444 166.861 260.444 167.16C260.444 167.459 260.492 167.747 260.588 168.024C260.695 168.301 260.844 168.547 261.036 168.76C261.239 168.973 261.479 169.144 261.756 169.272C262.033 169.4 262.348 169.464 262.7 169.464C263.052 169.464 263.367 169.4 263.644 169.272C263.921 169.144 264.156 168.973 264.348 168.76C264.551 168.547 264.7 168.301 264.796 168.024C264.903 167.747 264.956 167.459 264.956 167.16ZM268.586 163.32H270.41V164.52H270.442C270.613 164.157 270.885 163.837 271.258 163.56C271.642 163.272 272.154 163.128 272.794 163.128C273.999 163.128 274.799 163.603 275.194 164.552C275.471 164.061 275.818 163.704 276.234 163.48C276.65 163.245 277.146 163.128 277.722 163.128C278.234 163.128 278.666 163.213 279.018 163.384C279.37 163.555 279.653 163.789 279.866 164.088C280.09 164.387 280.25 164.739 280.346 165.144C280.442 165.539 280.49 165.965 280.49 166.424V171H278.57V166.648C278.57 166.413 278.549 166.189 278.506 165.976C278.463 165.752 278.389 165.56 278.282 165.4C278.175 165.229 278.031 165.096 277.85 165C277.669 164.904 277.434 164.856 277.146 164.856C276.847 164.856 276.591 164.915 276.378 165.032C276.175 165.139 276.005 165.288 275.866 165.48C275.738 165.661 275.642 165.875 275.578 166.12C275.525 166.355 275.498 166.595 275.498 166.84V171H273.578V166.424C273.578 165.944 273.477 165.565 273.274 165.288C273.071 165 272.735 164.856 272.266 164.856C271.946 164.856 271.674 164.909 271.45 165.016C271.237 165.123 271.055 165.267 270.906 165.448C270.767 165.629 270.666 165.837 270.602 166.072C270.538 166.307 270.506 166.552 270.506 166.808V171H268.586V163.32ZM282.62 163.32H284.54V171H282.62V163.32ZM282.348 160.712C282.348 160.403 282.46 160.136 282.684 159.912C282.919 159.677 283.212 159.56 283.564 159.56C283.916 159.56 284.209 159.672 284.444 159.896C284.689 160.109 284.812 160.381 284.812 160.712C284.812 161.043 284.689 161.32 284.444 161.544C284.209 161.757 283.916 161.864 283.564 161.864C283.212 161.864 282.919 161.752 282.684 161.528C282.46 161.293 282.348 161.021 282.348 160.712ZM285.848 164.952V163.32H287.432V161.096H289.352V163.32H291.464V164.952H289.352V168.312C289.352 168.696 289.422 169 289.56 169.224C289.71 169.448 289.998 169.56 290.424 169.56C290.595 169.56 290.782 169.544 290.984 169.512C291.187 169.469 291.347 169.405 291.464 169.32V170.936C291.262 171.032 291.011 171.096 290.712 171.128C290.424 171.171 290.168 171.192 289.944 171.192C289.432 171.192 289.011 171.133 288.68 171.016C288.36 170.909 288.104 170.744 287.912 170.52C287.731 170.285 287.603 169.997 287.528 169.656C287.464 169.315 287.432 168.92 287.432 168.472V164.952H285.848Z" fill="white"/>
</svg>
