<svg xmlns="http://www.w3.org/2000/svg" viewBox="0 0 32 32" width="32" height="32"><path d="M23.53,9h-.6A7,7,0,0,0,9.07,9h-.6A5.48,5.48,0,0,0,3,14.47v1.06A5.48,5.48,0,0,0,8.47,21a1,1,0,0,0,0-2A3.48,3.48,0,0,1,5,15.53V14.47A3.48,3.48,0,0,1,8.47,11H10a1,1,0,0,0,1-1,5,5,0,0,1,10,0,1,1,0,0,0,1,1h1.53A3.48,3.48,0,0,1,27,14.47v1.06A3.48,3.48,0,0,1,23.53,19a1,1,0,0,0,0,2A5.48,5.48,0,0,0,29,15.53V14.47A5.48,5.48,0,0,0,23.53,9Z" fill="#000000" class="color000 svgShape"></path><path d="M16.71,13.29a1,1,0,0,0-.33-.21,1,1,0,0,0-.76,0,1,1,0,0,0-.33.21l-4,4a1,1,0,0,0,0,1.42,1,1,0,0,0,1.42,0L15,16.41V28a1,1,0,0,0,2,0V16.41l2.29,2.3a1,1,0,0,0,1.42,0,1,1,0,0,0,0-1.42Z" fill="#000000" class="color000 svgShape"></path></svg>