<svg width="113" height="113" viewBox="0 0 113 113" fill="none" xmlns="http://www.w3.org/2000/svg">
<g clip-path="url(#clip0_735_1200)">
<path d="M41.4408 113H37.6674V111.764C37.6674 103.682 37.6486 95.5994 37.6839 87.5147C37.6839 85.8638 37.9198 84.2128 38.0519 82.3709C36.1157 81.3992 33.9106 80.2955 31.7103 79.1847C29.6868 78.1611 29.5877 76.6682 31.4343 75.3593C32.5215 74.5904 33.6771 73.8994 34.6865 73.0386C35.1747 72.6235 35.6841 71.8994 35.6912 71.3098C35.769 66.0953 35.7359 60.8808 35.7359 55.5201L33.1654 56.4634C30.6702 57.4068 28.1846 58.3502 25.6776 59.2487C24.6801 59.6072 24.1683 60.2346 23.982 61.277C22.9278 67.1731 21.8595 73.0692 20.7157 78.9653C20.5765 79.6729 20.0082 80.4346 19.4492 80.9252C18.5059 81.7341 17.4069 82.378 16.3362 83.0336C15.3929 83.6067 15.0439 84.3803 15.0462 85.4746C15.0722 94.1867 15.0604 102.896 15.0604 111.606V112.948H11.287V111.755C11.287 103.005 11.3106 94.2551 11.2705 85.5053C11.2587 82.9959 12.1572 81.0007 14.3788 79.8615C16.5414 78.7507 17.4211 77.1234 17.7513 74.739C18.4045 70.008 19.4021 65.3241 20.2558 60.619C20.678 58.2606 21.942 56.6285 24.2131 55.7818C28.326 54.2512 32.4248 52.6899 36.5354 51.1593C38.4032 50.4636 39.5376 51.2513 39.5353 53.2442C39.5353 59.0105 39.481 64.7793 39.5164 70.5457C39.5329 73.0692 38.6768 75.055 36.4954 76.4017C36.3313 76.5085 36.1738 76.625 36.0237 76.7507C35.9452 76.8353 35.8756 76.9278 35.8162 77.0267C37.6462 77.9441 39.4503 78.871 41.2804 79.7365C41.5422 79.8615 41.9738 79.7743 42.2733 79.6493C44.5868 78.687 46.8862 77.6894 49.1738 76.7083C49.1738 76.5927 49.2233 76.4842 49.1903 76.4536C47.372 74.7579 46.9805 72.6258 47.0489 70.2367C47.1551 66.6307 47.0914 63.0199 47.0725 59.4091C47.0584 56.6309 48.3153 54.7347 50.86 53.6168C55.4163 51.6192 59.9538 49.5744 64.5007 47.5556C66.668 46.5934 67.8024 47.3433 67.8024 49.7348C67.8024 56.6002 67.7363 63.4656 67.7835 70.3334C67.8023 72.9277 67.017 75.0173 64.7436 76.4182C64.6171 76.5091 64.5009 76.6135 64.3969 76.7295C64.3733 76.7531 64.3757 76.8026 64.3474 76.9276C66.5501 77.871 68.7669 78.8309 70.9932 79.7578C71.2098 79.8436 71.4511 79.8436 71.6677 79.7578C73.8421 78.6917 76.0023 77.5998 78.1767 76.5102C78.1235 76.3682 78.0555 76.2323 77.9739 76.1045C75.6344 73.4584 75.0354 70.3429 75.3113 66.9066C75.4693 64.9562 75.3113 62.9845 75.3443 61.0223C75.375 58.5554 76.4763 56.7134 78.7427 55.704C82.2802 54.1262 85.8555 52.6097 89.4307 51.1051C91.0391 50.4282 92.2772 51.2583 92.2843 53.0107C92.3 59.3266 92.3 65.6441 92.2843 71.9631C92.2843 73.8499 91.3551 75.3239 89.8646 76.621C90.2255 76.8427 90.492 77.0314 90.782 77.1776C92.7418 78.1634 94.7181 79.1163 96.6779 80.128C98.7367 81.2011 99.8239 82.9346 99.8286 85.2576C99.8506 94.2417 99.8506 103.227 99.8286 112.212C99.8286 112.448 99.8051 112.663 99.7909 112.941H96.0647V111.715C96.0647 103.123 96.0435 94.5287 96.0883 85.9369C96.0883 84.576 95.6166 83.76 94.3809 83.1799C91.6546 81.8874 88.9732 80.503 86.28 79.1422C84.464 78.2271 84.1292 76.8073 85.7163 75.5715C88.1124 73.706 88.7374 71.4183 88.5864 68.4962C88.3695 64.2722 88.5298 60.0317 88.5298 55.6545C87.8813 55.9116 87.3507 56.1097 86.8106 56.3361C84.7211 57.2299 82.641 58.145 80.5468 59.0247C79.6035 59.4162 79.1035 60.0412 79.1082 61.0813C79.1082 64.1472 79.087 67.2014 79.1342 70.2627C79.17 70.8037 79.3455 71.3262 79.6436 71.7791C80.5138 73.1777 81.4713 74.5197 82.3651 75.9017C83.2589 77.2837 82.9877 78.3215 81.509 79.0785C79.245 80.2365 76.9645 81.3591 74.9458 82.3662C75.0873 84.161 75.3184 85.7765 75.3254 87.392C75.3632 95.4744 75.342 103.557 75.342 111.639V112.96H71.5686V111.719C71.5686 103.165 71.5474 94.6112 71.5875 86.0571C71.5875 84.6869 71.1017 83.8803 69.8329 83.3567C66.5312 82.0006 63.2767 80.5525 59.9939 79.1658C59.1873 78.8238 58.527 78.3804 58.4114 77.4488C58.2959 76.5173 58.8406 75.9159 59.5623 75.4253C60.6967 74.6517 61.8806 73.9324 62.9135 73.0386C63.4206 72.6022 63.9347 71.831 63.9417 71.2037C64.0172 64.8524 63.9865 58.4964 63.9865 51.9942C63.6186 52.1192 63.2979 52.2041 63.0008 52.3362C59.4633 53.9069 55.9257 55.4965 52.3646 57.053C51.2987 57.5247 50.8199 58.2323 50.8317 59.4115C50.8671 63.4208 50.7987 67.4184 50.886 71.4183C50.9025 72.1494 51.3576 72.9489 51.7963 73.5716C52.3411 74.3263 53.1075 74.9159 53.7631 75.5927C55.105 76.9842 54.8645 78.338 53.0981 79.1092C49.8318 80.536 46.5655 81.97 43.2638 83.3072C41.8912 83.8614 41.3913 84.7034 41.4007 86.1727C41.4526 94.649 41.4266 103.123 41.4266 111.599L41.4408 113Z" fill="url(#paint0_linear_735_1200)"/>
<path d="M112.965 39.577V43.3505C112.097 43.3505 111.281 43.4024 110.469 43.3505C107.255 43.1147 104.173 43.6571 101.123 44.6689C98.5598 45.5179 95.935 46.216 93.3243 46.8693C92.5808 47.0497 91.8 46.9987 91.0863 46.7231C85.7281 44.4071 80.4053 42.0062 75.0731 39.6478C73.5237 38.9567 73.2878 38.2751 73.6958 36.6738C74.9387 31.7753 77.9951 29.9168 82.9429 31.53C85.5795 32.3885 88.3294 32.9026 91.0297 33.5677C91.3244 33.6408 91.6287 33.6856 92.0909 33.7752C86.7021 29.7824 82.5278 24.7683 77.8677 20.2661C75.7004 18.1741 75.0991 15.5327 76.1202 12.6955C77.1414 9.85828 79.2686 8.25454 82.2778 7.95266C84.4687 7.73332 86.379 8.46916 87.9544 10.0021C88.7397 10.7663 89.4684 11.5894 90.3127 12.4927C91.2985 11.5351 92.1593 10.646 93.079 9.81819C97.0882 6.19326 103.432 7.99039 104.871 13.179C105.595 15.8039 104.956 18.1506 103.104 20.1387C102.361 20.9382 101.531 21.6576 100.55 22.5962C103.795 23.1009 105.281 25.5914 107.246 27.4334C107.892 28.0395 108.493 28.3768 109.396 28.3202C110.559 28.2447 111.729 28.3013 112.955 28.3013V31.9993C110.981 31.9993 108.995 32.0536 107.017 31.9592C106.545 31.9356 106.052 31.471 105.67 31.1031C104.338 29.8272 103.076 28.4735 101.729 27.2235C101.3 26.8273 100.666 26.4452 100.114 26.4263C97.5693 26.3438 95.02 26.3886 92.3315 26.3886C92.3315 27.1598 92.2277 27.9027 92.3574 28.6055C92.5531 29.6739 93.3219 30.1574 94.4044 30.155C96.1638 30.155 97.9231 30.155 99.7555 30.155V33.4686C98.4962 34.1762 97.2698 34.6243 96.3453 35.4238C93.9611 37.4851 91.506 37.9685 88.4756 36.8389C85.9215 35.8955 83.1764 35.4568 80.5115 34.8106C78.9125 34.4214 78.172 34.9214 77.7569 36.6973C81.818 38.5039 85.9309 40.235 89.9542 42.1666C91.6923 42.9967 93.2559 43.143 95.086 42.5109C98.1188 41.4755 101.241 40.6949 104.335 39.8364C104.899 39.679 105.481 39.595 106.066 39.5864C108.34 39.5605 110.609 39.577 112.965 39.577ZM88.3977 25.5183C88.7326 23.1953 89.1901 22.4382 90.6146 22.6764C94.2606 23.2825 96.8335 21.7944 98.923 19.009C99.2956 18.5114 99.8074 18.1223 100.241 17.6671C101.725 16.1129 101.767 14.0068 100.347 12.6294C98.9277 11.2521 96.8925 11.3347 95.395 12.7922C94.3243 13.8299 93.2866 14.8983 92.23 15.9478C90.8363 17.3298 90.0179 17.3393 88.6501 15.9855C87.5629 14.9101 86.5016 13.8087 85.3979 12.7497C83.9051 11.3158 81.8109 11.2969 80.4454 12.6695C79.0799 14.0422 79.1129 16.1317 80.5586 17.6223C81.759 18.8604 82.9971 20.0633 84.214 21.2849C85.5819 22.6646 86.945 24.049 88.3977 25.5183Z" fill="url(#paint1_linear_735_1200)"/>
<path d="M43.3251 23.5655C43.3251 19.6812 43.3487 15.7968 43.3109 11.9125C43.2884 11.4456 43.381 10.9803 43.5804 10.5576C43.7799 10.1348 44.0801 9.76754 44.4547 9.488C47.9427 6.62721 51.3953 3.72397 54.8621 0.83724C56.1946 -0.273586 56.8242 -0.280662 58.1638 0.83724C61.6636 3.7452 65.1516 6.66731 68.6608 9.56347C69.0027 9.82421 69.2766 10.1636 69.4593 10.5528C69.642 10.9421 69.7281 11.3697 69.7102 11.7993C69.689 19.6458 69.7102 27.4923 69.6961 35.3389C69.6961 37.0275 69.031 37.6973 67.3377 37.6973C60.1196 37.6973 52.9 37.6973 45.6787 37.6973C43.9901 37.6973 43.3204 37.0346 43.3204 35.3389C43.3172 31.4129 43.3188 27.4884 43.3251 23.5655ZM56.5153 4.36311C53.5957 6.79466 50.7515 9.18848 47.8743 11.5398C47.6098 11.7287 47.3975 11.9816 47.2573 12.2749C47.117 12.5682 47.0535 12.8922 47.0725 13.2167C47.1055 19.7637 47.0914 26.3108 47.0937 32.8601C47.0937 33.195 47.1385 33.5323 47.1574 33.8295H50.86C50.86 28.9121 50.86 24.0891 50.86 19.2685C50.86 17.6529 51.5345 16.9878 53.1499 16.9784C55.3511 16.9658 57.5475 16.9658 59.7391 16.9784C61.5103 16.9784 62.1517 17.6175 62.1541 19.384C62.1541 23.7754 62.1541 28.1669 62.1541 32.5583V33.8531H65.9274V32.5087C65.9274 26.2754 65.8968 20.0397 65.9557 13.8063C65.9557 12.6271 65.6256 11.8771 64.7106 11.1483C61.9607 8.95735 59.284 6.66731 56.5153 4.36311ZM54.7088 20.7944V33.8318H58.3336V20.7944H54.7088Z" fill="url(#paint2_linear_735_1200)"/>
<path d="M18.8385 45.2255C13.3828 45.2255 7.92877 45.2255 2.47628 45.2255C0.627339 45.2255 0.00238037 44.6005 0.00238037 42.7562C0.00238037 35.618 0.00238037 28.4774 0.00238037 21.3345C0.00238037 19.4855 0.622615 18.8628 2.4692 18.8628H35.1888C37.0378 18.8628 37.6627 19.4878 37.6651 21.3298C37.6651 28.4711 37.6651 35.6117 37.6651 42.7515C37.6651 44.5981 37.0354 45.2255 35.1936 45.2255C29.7442 45.2286 24.2925 45.2286 18.8385 45.2255ZM33.8234 41.4095V22.7189H3.82288V41.4095H33.8234Z" fill="url(#paint3_linear_735_1200)"/>
<path d="M105.269 85.1279C104.937 84.9652 104.725 84.8779 104.529 84.7624C103.72 84.2907 102.918 83.8049 102.012 83.2671C108.382 72.0944 110.543 60.1536 108.496 47.4448L112.189 46.7986C114.401 60.4704 112.087 73.1683 105.269 85.1279Z" fill="url(#paint4_linear_735_1200)"/>
<path d="M0.537701 48.7278L4.24976 49.2726C2.83475 60.0671 4.48557 70.3216 9.32961 80.1681C8.72116 80.4794 8.17875 80.7625 7.63161 81.0384C7.08448 81.3143 6.59394 81.5478 5.98077 81.8521C0.79242 71.3381 -0.98343 60.395 0.537701 48.7278Z" fill="url(#paint5_linear_735_1200)"/>
<path d="M22.1519 16.5044L19.6969 13.6742C26.8834 7.496 35.5096 3.22652 44.7802 1.2594C44.9312 1.86552 45.0656 2.35136 45.167 2.84191C45.3014 3.48813 45.4028 4.14141 45.4807 4.52112C41.3017 6.12015 37.1628 7.53049 33.1748 9.28046C29.1515 11.0375 25.5786 13.6035 22.1519 16.5044Z" fill="url(#paint6_linear_735_1200)"/>
<path d="M18.9163 92.3754H22.5458V112.943H18.9163V92.3754Z" fill="url(#paint7_linear_735_1200)"/>
<path d="M48.8979 112.972H45.2661V92.4037H48.8979V112.972Z" fill="url(#paint8_linear_735_1200)"/>
<path d="M67.7339 112.976H64.1139V92.4108H67.7339V112.976Z" fill="url(#paint9_linear_735_1200)"/>
<path d="M88.6147 92.3754H92.2419V112.941H88.6147V92.3754Z" fill="url(#paint10_linear_735_1200)"/>
<path d="M76.0282 3.37256L74.7453 6.85834C74.5988 6.87603 74.4508 6.87603 74.3043 6.85834C72.0686 6.19326 69.8352 5.51874 67.4651 4.80649C67.7009 3.67208 67.9368 2.51173 68.2198 1.16742L76.0282 3.37256Z" fill="url(#paint11_linear_735_1200)"/>
<path d="M13.1147 37.6761C11.7893 37.6761 10.5017 37.7492 9.22582 37.6525C8.20466 37.5747 7.57497 36.8837 7.5561 35.8459C7.51601 33.2988 7.50657 30.747 7.5561 28.1999C7.57968 27.1126 8.28013 26.4641 9.36968 26.4122C10.5795 26.3556 11.7941 26.4004 13.0912 26.4004V30.1126L11.3507 30.2045V33.8696L13.1076 33.9733L13.1147 37.6761Z" fill="url(#paint12_linear_735_1200)"/>
<path d="M24.5338 37.6832V33.9757L26.3167 33.8837V30.2187L24.5574 30.1126V26.4098C25.8852 26.4098 27.1752 26.3343 28.451 26.431C29.4746 26.5089 30.1019 27.2046 30.1184 28.24C30.1585 30.7871 30.1703 33.3389 30.1184 35.886C30.0924 36.9709 29.3897 37.6195 28.3001 37.6714C27.0832 37.7303 25.8686 37.6832 24.5338 37.6832Z" fill="url(#paint13_linear_735_1200)"/>
<path d="M17.0296 30.181H20.6284V33.8413H17.0296V30.181Z" fill="url(#paint14_linear_735_1200)"/>
</g>
<defs>
<linearGradient id="paint0_linear_735_1200" x1="55.5578" y1="47.1484" x2="55.5578" y2="113" gradientUnits="userSpaceOnUse">
<stop stop-color="#3E4095"/>
<stop offset="1" stop-color="#219653"/>
</linearGradient>
<linearGradient id="paint1_linear_735_1200" x1="93.2419" y1="7.91464" x2="93.2419" y2="46.9752" gradientUnits="userSpaceOnUse">
<stop stop-color="#3E4095"/>
<stop offset="1" stop-color="#219653"/>
</linearGradient>
<linearGradient id="paint2_linear_735_1200" x1="56.5101" y1="0.00146484" x2="56.5101" y2="37.6973" gradientUnits="userSpaceOnUse">
<stop stop-color="#3E4095"/>
<stop offset="1" stop-color="#219653"/>
</linearGradient>
<linearGradient id="paint3_linear_735_1200" x1="18.8337" y1="18.8628" x2="18.8337" y2="45.2278" gradientUnits="userSpaceOnUse">
<stop stop-color="#3E4095"/>
<stop offset="1" stop-color="#219653"/>
</linearGradient>
<linearGradient id="paint4_linear_735_1200" x1="107.506" y1="46.7986" x2="107.506" y2="85.1279" gradientUnits="userSpaceOnUse">
<stop stop-color="#3E4095"/>
<stop offset="1" stop-color="#219653"/>
</linearGradient>
<linearGradient id="paint5_linear_735_1200" x1="4.67118" y1="48.7278" x2="4.67118" y2="81.8521" gradientUnits="userSpaceOnUse">
<stop stop-color="#3E4095"/>
<stop offset="1" stop-color="#219653"/>
</linearGradient>
<linearGradient id="paint6_linear_735_1200" x1="32.5888" y1="1.2594" x2="32.5888" y2="16.5044" gradientUnits="userSpaceOnUse">
<stop stop-color="#3E4095"/>
<stop offset="1" stop-color="#219653"/>
</linearGradient>
<linearGradient id="paint7_linear_735_1200" x1="20.731" y1="92.3754" x2="20.731" y2="112.943" gradientUnits="userSpaceOnUse">
<stop stop-color="#3E4095"/>
<stop offset="1" stop-color="#219653"/>
</linearGradient>
<linearGradient id="paint8_linear_735_1200" x1="47.082" y1="92.4037" x2="47.082" y2="112.972" gradientUnits="userSpaceOnUse">
<stop stop-color="#3E4095"/>
<stop offset="1" stop-color="#219653"/>
</linearGradient>
<linearGradient id="paint9_linear_735_1200" x1="65.9239" y1="92.4108" x2="65.9239" y2="112.976" gradientUnits="userSpaceOnUse">
<stop stop-color="#3E4095"/>
<stop offset="1" stop-color="#219653"/>
</linearGradient>
<linearGradient id="paint10_linear_735_1200" x1="90.4283" y1="92.3754" x2="90.4283" y2="112.941" gradientUnits="userSpaceOnUse">
<stop stop-color="#3E4095"/>
<stop offset="1" stop-color="#219653"/>
</linearGradient>
<linearGradient id="paint11_linear_735_1200" x1="71.7467" y1="1.16742" x2="71.7467" y2="6.8716" gradientUnits="userSpaceOnUse">
<stop stop-color="#3E4095"/>
<stop offset="1" stop-color="#219653"/>
</linearGradient>
<linearGradient id="paint12_linear_735_1200" x1="10.3186" y1="26.3835" x2="10.3186" y2="37.7026" gradientUnits="userSpaceOnUse">
<stop stop-color="#3E4095"/>
<stop offset="1" stop-color="#219653"/>
</linearGradient>
<linearGradient id="paint13_linear_735_1200" x1="27.3434" y1="26.3818" x2="27.3434" y2="37.701" gradientUnits="userSpaceOnUse">
<stop stop-color="#3E4095"/>
<stop offset="1" stop-color="#219653"/>
</linearGradient>
<linearGradient id="paint14_linear_735_1200" x1="18.829" y1="30.181" x2="18.829" y2="33.8413" gradientUnits="userSpaceOnUse">
<stop stop-color="#3E4095"/>
<stop offset="1" stop-color="#219653"/>
</linearGradient>
<clipPath id="clip0_735_1200">
<rect width="113" height="113" fill="white"/>
</clipPath>
</defs>
</svg>
