<svg width="114" height="113" viewBox="0 0 114 113" fill="none" xmlns="http://www.w3.org/2000/svg">
<g clip-path="url(#clip0_727_1183)">
<path d="M102.2 113H20.2592C20.0198 112.915 19.7742 112.848 19.5245 112.799C10.2084 111.646 2.448 104.559 0.487816 95.393C-0.463213 90.8826 0.00995375 86.191 1.84294 81.9568C3.67593 77.7226 6.77973 74.1514 10.7319 71.7291C13.5339 70.0357 16.6363 69.2185 19.7476 68.3806C24.1379 67.2005 28.5193 65.9939 32.9602 64.7872C32.7342 64.3211 32.5319 63.9317 32.3653 63.5304C30.7621 59.9695 30.4379 56.2758 32.0679 52.7237C33.0465 50.573 33.5551 48.5432 33.2309 46.2332C33.0881 45.1534 33.341 44.0205 33.4213 42.7519L32.2315 43.637C29.7142 45.5887 26.9039 47.1367 23.9029 48.2246C23.1891 48.4783 22.2283 48.6081 21.5561 48.3485C9.80092 43.7756 2.5878 35.3262 0.541354 22.9765C-0.196317 18.5157 0.145741 13.8779 0.0505575 9.32276C0.0267616 8.25477 0.710909 7.58212 1.72223 7.22219C8.31071 4.87675 14.8873 2.50181 21.4906 0.194724C22.1497 -0.0184398 22.8601 -0.0184398 23.5192 0.194724C30.0869 2.48706 36.6337 4.83545 43.1805 7.18384C44.5845 7.68833 44.995 8.29017 45.0009 9.73579C45.0009 12.6064 45.0188 15.477 45.0009 18.3475C45.0119 23.4133 43.7417 28.4009 41.3066 32.8539C39.9056 35.3822 38.1477 37.7158 36.5475 40.1409C37.0799 40.3445 37.8146 40.5835 38.5076 40.9021C39.2483 41.2384 40.1049 41.4922 40.6433 42.0557C42.6868 44.1562 45.2091 44.3185 47.8832 44.1002C48.4365 44.0559 49.0076 44.1651 49.5489 44.0736C50.0715 43.9724 50.5739 43.7871 51.0362 43.5249C52.9398 42.4864 54.7602 41.2738 56.7293 40.3888C58.4664 39.6069 59.6354 40.3711 60.0905 42.2386C60.6439 44.4982 60.7299 46.8456 60.3433 49.1392C60.2713 49.4167 60.2775 49.7086 60.3612 49.9829C61.0274 51.3991 61.7383 52.7916 62.4701 54.2637C65.4536 51.7613 68.0389 48.8261 70.1383 45.5576C66.8931 43.0735 65.4892 39.84 65.6587 35.8808C65.7182 34.4853 65.623 33.081 65.7003 31.6856C66.0156 25.9798 68.7046 21.6282 73.895 19.2385C79.4127 16.6984 85.2724 17.1055 90.9805 18.6898C95.4035 19.9171 98.7141 22.7906 101.183 26.6112C102.194 28.1866 103.583 28.9418 105.463 28.8681C106.388 28.8327 107.316 28.8504 108.244 28.8681C109.421 28.8837 110.565 29.2519 111.526 29.9243C112.487 30.5967 113.221 31.5418 113.631 32.6355C113.75 32.9306 113.896 33.2256 114.03 33.5206V40.1498C113.953 40.2705 113.892 40.4004 113.848 40.5363C112.795 45.9382 109.053 49.5935 103.56 50.3665C101.971 50.5907 100.32 50.4019 98.6011 50.4019L98.8182 51.4964C100.514 60.0757 98.7439 67.8407 93.3392 74.7826C92.9623 75.3036 92.7547 75.9264 92.7443 76.5675C92.6997 83.89 92.7086 91.2155 92.7057 98.5379V99.7564C93.5326 99.7564 94.1929 99.7564 94.8592 99.7564C96.0495 99.7668 97.2253 100.017 98.3149 100.492C99.4046 100.968 100.385 101.658 101.198 102.521C103.188 104.568 103.732 107.076 103.717 109.829C103.667 111.165 103.393 112.257 102.2 113ZM109.482 38.2115C108.39 37.8984 107.395 37.3187 106.588 36.5254C105.781 35.7322 105.188 34.7508 104.862 33.6711C104.779 33.4233 104.479 33.081 104.268 33.081C101.094 32.9099 98.961 31.1663 97.3221 28.6557C95.1388 25.3012 92.0364 23.2449 88.1517 22.3127C87.7904 22.2603 87.4251 22.2395 87.0601 22.2507C87.0601 26.9711 87.0601 31.5823 87.0601 36.1817C87.078 39.6099 85.9655 42.5631 83.3123 44.8112C80.8821 46.8763 78.0653 47.7791 74.838 47.3012C74.6457 47.3094 74.4578 47.3606 74.2883 47.4511C74.1189 47.5415 73.9722 47.6688 73.8594 47.8234C70.8432 52.2576 67.3006 56.1814 62.9103 59.3529C62.6616 59.5076 62.4722 59.7401 62.3719 60.0137C61.8514 62.5982 60.7597 64.9023 59.2368 66.581C60.5337 69.7761 61.7383 72.7529 62.9936 75.8477C68.535 76.4613 72.9224 79.2345 75.4091 84.5479C77.8957 89.8613 77.0926 95.0095 73.7731 99.8744C78.4252 101.081 80.8286 104.064 81.3223 108.53H99.2882C99.2939 108.296 99.278 108.062 99.2406 107.831C98.5386 105.238 96.9324 104.046 94.071 103.996C92.1881 103.966 90.3053 103.969 88.4194 103.946C87.992 103.97 87.5709 103.835 87.2401 103.565C86.9093 103.295 86.6932 102.912 86.6348 102.491C86.4325 101.532 86.5693 100.568 87.5836 100.161C88.3451 99.8656 88.4105 99.3935 88.4105 98.7209C88.3927 91.5783 88.4879 84.4388 88.351 77.2992C88.3035 74.9656 88.9281 73.1689 90.3618 71.3102C95.0466 65.1767 96.1412 58.2613 94.1423 50.8592C94.0412 50.4845 93.5475 50.1157 93.1429 49.9416C91.8074 49.3516 90.3915 48.9474 89.0828 48.319C87.774 47.6906 87.3814 46.4368 88.0149 45.3186C88.6098 44.2654 89.7996 43.9733 91.0846 44.643C92.951 45.6733 95.0691 46.1697 97.2031 46.0768C98.8688 46.0001 100.543 45.9883 102.209 46.0768C106.147 46.301 110.166 42.1884 109.482 38.2115ZM43.5672 99.7003C43.8937 94.3228 45.2792 89.0608 47.6452 84.2116C48.5168 82.3972 49.5668 81.8101 50.8845 82.4119C52.2022 83.0138 52.3717 84.2381 51.5983 86.0083C50.7863 87.8846 49.9267 89.761 49.3794 91.72C48.6595 94.2985 48.2283 96.9566 47.6363 99.7475C49.4746 99.7475 50.9886 99.7092 52.4996 99.7475C53.2373 99.7741 53.6715 99.5823 53.8917 98.8418C55.0814 94.8974 56.3337 90.9765 57.461 87.0143C58.4605 83.474 59.0405 79.857 58.3534 76.1692C57.9434 73.8425 57.0367 71.6296 55.6942 69.6787L53.5645 70.5962C50.7387 71.794 47.7523 71.4489 44.8106 71.4666C42.0249 71.4749 39.3116 70.5878 37.0769 68.9382C36.8253 68.7391 36.5262 68.6073 36.2085 68.5557C35.8908 68.504 35.5651 68.5341 35.2625 68.6432C29.611 70.1862 23.9327 71.7439 18.2544 73.2485C8.06084 75.9509 2.24275 85.9493 5.16667 95.8444C7.42133 103.438 14.7118 108.631 22.2789 108.589C35.664 108.519 49.067 108.572 62.4582 108.569C64.1001 108.569 65.04 107.769 65.046 106.374C65.0519 104.978 64.1239 104.152 62.4879 104.152H28.6324C28.3349 104.152 28.0375 104.17 27.74 104.152C26.3123 104.046 25.3604 103.114 25.3931 101.878C25.4288 100.698 26.3896 99.8124 27.7727 99.7505C28.5877 99.7092 29.4176 99.8213 30.2178 99.7121C30.7775 99.6614 31.3061 99.4339 31.7258 99.0631C34.1471 96.458 34.8788 93.3927 33.689 90.0206C32.2821 86.0378 29.2273 84.185 25.0898 83.8664C23.7512 83.7632 22.8619 82.8102 22.9392 81.6832C22.9899 81.111 23.2607 80.5801 23.6955 80.2006C24.1302 79.821 24.6955 79.622 25.2742 79.6446C27.7953 79.6725 30.257 80.4079 32.3743 81.7658C36.7557 84.5125 39.2959 89.938 38.3232 94.9092C38.002 96.5318 37.4309 98.1043 36.9639 99.6885L43.5672 99.7003ZM4.24161 10.9129C4.4528 14.8633 4.27731 18.914 4.95252 22.8201C6.68366 32.786 12.5702 39.6719 21.7911 43.7963C22.2536 43.9718 22.7652 43.9718 23.2277 43.7963C27.6337 42.0017 31.4968 39.1072 34.4415 35.394C37.6332 31.3787 39.7956 26.8649 40.2626 21.7492C40.5838 18.3593 40.5095 14.9282 40.5452 11.5148C40.5034 11.3086 40.4128 11.1153 40.281 10.9506C40.1491 10.786 39.9797 10.6548 39.7867 10.5678C34.27 8.55766 28.7404 6.581 23.198 4.63778C22.827 4.49833 22.4213 4.4777 22.0379 4.57878C16.1871 6.64099 10.3482 8.73566 4.24161 10.9129ZM56.1999 45.593L55.8429 45.3924C54.9954 46.1262 54.1098 46.8155 53.1897 47.4575C52.4818 47.9089 51.64 48.381 50.8339 48.4164C48.2074 48.5373 45.5691 48.4429 42.9366 48.4695C42.475 48.4813 42.0159 48.3981 41.5884 48.2249C41.1609 48.0517 40.7742 47.7924 40.4529 47.4634C39.6439 46.6993 38.7129 46.0591 37.8384 45.3658L37.5409 45.5605C37.6629 46.6816 37.6569 47.8352 37.9366 48.915C38.2637 50.1747 38.0109 51.1365 37.2554 52.1927C33.3261 57.6772 36.244 65.3743 42.8831 66.8199C44.8403 67.2448 46.9403 67.1563 48.9689 67.0884C52.7911 66.9615 55.6139 65.0941 57.2409 61.6895C58.868 58.2849 58.4962 55.0249 56.295 51.995C55.9773 51.5927 55.7581 51.1226 55.6549 50.6218C55.5516 50.1211 55.5671 49.6034 55.7001 49.1097C55.9649 47.9679 56.0422 46.7701 56.1999 45.593ZM63.1125 80.2376C62.3541 86.9701 60.5664 93.3485 58.3147 99.7475C59.7752 99.7475 61.1345 99.7033 62.479 99.7475C63.2889 99.74 64.094 99.8717 64.8586 100.137C65.7509 100.512 66.3458 100.432 67.2114 99.9098C72.0806 96.9271 73.8861 90.885 71.2269 85.8667C69.5315 82.645 66.8009 80.7893 63.1125 80.2376ZM69.2727 108.468H76.819C76.6346 106.256 75.302 104.583 73.2674 104.279C71.92 104.078 70.516 104.241 69.2787 104.241L69.2727 108.468Z" fill="url(#paint0_linear_727_1183)"/>
<path d="M21.5144 22.3864C23.4181 20.4894 25.1849 18.7193 26.9667 16.958C28.3349 15.6068 29.2689 15.6156 30.6461 16.958C31.2767 17.5775 31.9192 18.1912 32.5289 18.8314C33.5284 19.8787 33.5522 21.0175 32.5289 22.0324C29.7964 24.7859 27.044 27.5149 24.2718 30.2193C22.6328 31.8124 20.4049 31.7593 18.7392 30.1485C17.3353 28.7835 15.9472 27.4067 14.575 26.0181C13.4298 24.8646 13.4328 23.835 14.575 22.6755C15.2472 21.9911 15.9254 21.3096 16.6214 20.6517C17.6565 19.6722 18.8255 19.6574 19.8517 20.6281C20.4139 21.165 20.9136 21.7492 21.5144 22.3864Z" fill="url(#paint1_linear_727_1183)"/>
<path d="M46.8094 57.3202C48.5168 57.3202 49.4389 58.0194 49.427 59.3116C49.427 60.4917 48.029 61.9491 46.8808 61.9668C45.6672 61.9904 44.2692 60.5389 44.2781 59.2673C44.2871 57.9958 45.1556 57.3202 46.8094 57.3202Z" fill="url(#paint2_linear_727_1183)"/>
</g>
<defs>
<linearGradient id="paint0_linear_727_1183" x1="57.0194" y1="0.0348511" x2="57.0194" y2="113" gradientUnits="userSpaceOnUse">
<stop stop-color="#3E4095"/>
<stop offset="1" stop-color="#219653"/>
</linearGradient>
<linearGradient id="paint1_linear_727_1183" x1="23.5023" y1="15.9479" x2="23.5023" y2="31.3858" gradientUnits="userSpaceOnUse">
<stop stop-color="#3E4095"/>
<stop offset="1" stop-color="#219653"/>
</linearGradient>
<linearGradient id="paint2_linear_727_1183" x1="46.8526" y1="57.3202" x2="46.8526" y2="61.9671" gradientUnits="userSpaceOnUse">
<stop stop-color="#3E4095"/>
<stop offset="1" stop-color="#219653"/>
</linearGradient>
<clipPath id="clip0_727_1183">
<rect width="114" height="113" fill="white"/>
</clipPath>
</defs>
</svg>
