<svg width="114" height="114" viewBox="0 0 114 114" fill="none" xmlns="http://www.w3.org/2000/svg">
<path d="M36.5896 113.01H34.1634C31.6929 112.406 30.0715 110.767 28.6506 108.745C25.8382 104.749 22.9285 100.82 20.007 96.9032C19.3691 96.0532 18.6138 95.2981 17.7636 94.6603C13.147 91.2032 8.48033 87.808 3.84311 84.3774C1.50829 82.6503 0.441104 80.3132 0.957005 77.4514C1.79424 72.8066 6.62899 70.2395 11.0215 72.0816C14.7802 73.6583 18.4947 75.3235 22.2239 77.0034C22.9049 77.2981 23.2999 77.2186 23.8129 76.6616C31.2242 68.6412 38.6502 60.6355 46.091 52.6445C47.8775 50.7229 47.565 48.878 45.2479 47.6519C32.6284 40.9715 20.007 34.2852 7.38367 27.593C6.85985 27.3274 6.35893 27.0188 5.88608 26.6705C4.54897 25.6695 3.59746 24.2388 3.19156 22.6188C2.78567 20.9989 2.95017 19.2887 3.65739 17.7758C5.08422 14.6104 7.94085 13.2017 11.5581 13.965C30.1285 17.8809 48.6951 21.8193 67.2577 25.7804C69.0913 26.1724 70.3708 25.81 71.6502 24.4277C77.9943 17.5724 84.4327 10.8085 90.7916 3.97088C92.3417 2.2828 94.3576 1.09208 96.5844 0.549179C99.0925 -0.0815252 101.708 -0.160973 104.249 0.316336C108.998 1.18577 112.185 3.77053 113.314 8.60105C113.506 9.41743 113.671 10.2397 113.848 11.059V15.0319C113.765 15.189 113.701 15.3552 113.656 15.5271C113.313 18.5461 111.874 21.3344 109.612 23.3637C104.305 28.2345 99.0558 33.1721 93.8634 38.1765C92.9024 39.102 92.127 39.2995 90.9154 38.7984C87.9026 37.5547 84.7924 37.2717 81.6557 38.3298C73.3777 41.1208 65.0997 43.9089 56.8453 46.7619C51.3709 48.651 48.0013 53.2458 47.9453 59.0282C47.8627 65.7538 47.9453 72.4853 47.904 79.2109C47.8852 79.8018 47.6515 80.3656 47.2466 80.7965C44.0805 83.8184 40.8779 86.7991 37.6391 89.7385C36.8726 90.434 36.6986 90.9645 37.1556 91.9459C38.6561 95.1732 40.0446 98.4534 41.4626 101.719C43.8033 107.104 42.1554 110.959 36.6839 112.918C36.6338 112.939 36.6131 112.983 36.5896 113.01Z" fill="url(#paint0_linear_727_1180)"/>
<path d="M113.828 58.2829V80.5728C113.494 82.2557 113.256 83.9651 112.813 85.6214C110.77 93.2577 106.183 99.2111 100.284 104.266C96.1042 107.849 91.4404 110.679 86.4642 113.01H84.6954C84.582 112.925 84.4617 112.851 84.3357 112.786C77.7823 109.789 71.9217 105.795 66.9661 100.546C60.5925 93.7941 57.0755 85.9044 57.3055 76.4644C57.4411 70.8646 57.329 65.2855 57.332 59.6975C57.332 57.2779 58.0749 56.2581 60.3832 55.4742C68.0981 52.8541 75.8219 50.2605 83.5191 47.5903C84.8632 47.0936 86.3406 47.0936 87.6847 47.5903C95.2807 50.2172 102.889 52.8049 110.511 55.3533C112.091 55.8897 113.273 56.6854 113.828 58.2829ZM83.7402 80.3459C82.2662 79.0786 80.8423 77.8496 79.4067 76.65C77.2074 74.8139 74.3538 74.9613 72.6262 76.9831C70.8574 79.0462 71.1287 81.9109 73.3397 83.8236C75.926 86.0615 78.5203 88.2857 81.1224 90.4962C83.5339 92.5386 86.3757 92.2321 88.345 89.7358C90.8036 86.6196 93.2603 83.5004 95.715 80.3783C97.5074 78.0971 99.3263 75.8337 101.08 73.523C102.333 71.8696 102.463 70.0482 101.411 68.2593C100.358 66.4703 98.7574 65.7836 96.738 66.0017C95.2935 66.1608 94.2558 66.9831 93.3832 68.0972C90.1934 72.1496 87.0096 76.1873 83.7402 80.3459Z" fill="url(#paint1_linear_727_1180)"/>
<defs>
<linearGradient id="paint0_linear_727_1180" x1="57.3387" y1="0.00900269" x2="57.3387" y2="113.01" gradientUnits="userSpaceOnUse">
<stop stop-color="#3E4095"/>
<stop offset="1" stop-color="#219653"/>
</linearGradient>
<linearGradient id="paint1_linear_727_1180" x1="85.5612" y1="47.2178" x2="85.5612" y2="113.01" gradientUnits="userSpaceOnUse">
<stop stop-color="#3E4095"/>
<stop offset="1" stop-color="#219653"/>
</linearGradient>
</defs>
</svg>
