<svg width="86" height="105" viewBox="0 0 86 105" fill="none" xmlns="http://www.w3.org/2000/svg">
<path d="M54.7247 31.3226L62.1639 47.8018H24.4972L31.183 31.3226H54.7247ZM29.2055 52.5101C26.616 52.5101 24.4972 54.6288 24.4972 57.2184C24.4972 59.808 26.616 61.9268 29.2055 61.9268C31.7951 61.9268 33.9139 59.808 33.9139 57.2184C33.9139 54.6288 31.7951 52.5101 29.2055 52.5101ZM57.4555 52.5101C54.866 52.5101 52.7472 54.6288 52.7472 57.2184C52.7472 59.808 54.866 61.9268 57.4555 61.9268C60.0451 61.9268 62.1639 59.808 62.1639 57.2184C62.1639 54.6288 60.0451 52.5101 57.4555 52.5101ZM85.7055 19.5517V47.8018C85.7055 73.933 67.6255 98.3692 43.3305 104.302C19.0355 98.3692 0.955536 73.933 0.955536 47.8018V19.5517L43.3305 0.718414L85.7055 19.5517ZM71.5805 52.5101L61.4105 28.9684C60.4689 26.2376 57.8322 24.2601 54.7247 24.2601H31.183C28.0755 24.2601 25.4389 26.2376 24.4972 28.9684L15.0805 52.5101V71.3434C15.0805 73.933 17.1993 76.0518 19.7889 76.0518H24.4972C27.0868 76.0518 29.2055 73.933 29.2055 71.3434V66.6351H57.4555V71.3434C57.4555 73.933 59.5743 76.0518 62.1639 76.0518H66.8722C69.4618 76.0518 71.5805 73.933 71.5805 71.3434V52.5101Z" fill="url(#paint0_linear_727_1149)"/>
<defs>
<linearGradient id="paint0_linear_727_1149" x1="43.3305" y1="0.718414" x2="43.3305" y2="104.302" gradientUnits="userSpaceOnUse">
<stop stop-color="#3E4095"/>
<stop offset="1" stop-color="#219653"/>
</linearGradient>
</defs>
</svg>
