<svg xmlns="http://www.w3.org/2000/svg" enable-background="new 0 0 51 51" viewBox="0 0 51 51" width="256" height="256"><path fill="#ffbc74" d="M49.51176,15.79671v16.1556c0,1.09471-0.16566,2.17321-0.48366,3.20163
						c-0.64186,2.07573-2.00637,3.85375-3.7125,5.19903l-5.39128,4.25105H29.28755v-1.08104
						c0-4.28634,2.23419-8.26273,5.89515-10.49212l0.00001-0.00001c1.3951-0.84956,2.60677-1.96883,3.56411-3.2923l4.0364-5.58013
						c0.47166-0.65456,1.28991-0.92412,2.03107-0.73158l1.04909-7.87217c0.12131-0.91032,0.8978-1.5902,1.81617-1.5902h0
						C48.69144,13.96448,49.51176,14.7848,49.51176,15.79671z" class="colorFFBC74 svgShape"></path><path d="M49.51172,15.80109v16.14996c0,1.10003-0.16998,2.17004-0.47998,3.20001
						c-0.65002,2.08002-2.01001,3.85999-3.71997,5.20001l-5.39001,4.25H29.29175v-1.08002
						c0-0.53998,0.03998-1.07001,0.09998-1.59998h8.03003l5.39001-4.26001c1.70996-1.33997,3.06995-3.12,3.71997-5.19
						c0.31-1.02997,0.47998-2.10998,0.47998-3.21002V14.08106c0.21002-0.07996,0.44-0.12,0.67004-0.12
						C48.69171,13.96106,49.51172,14.78107,49.51172,15.80109z" opacity=".05" fill="#000000" class="color000 svgShape"></path><path fill="#2fcbff" d="M43.99609,43.82431v4.97662c0,0.38506-0.31767,0.70274-0.70268,0.70274H28.17096
						c-0.39464,0-0.70268-0.31768-0.70268-0.70274v-4.97662c0-0.385,0.30804-0.69304,0.70268-0.69304h15.12245
						C43.67841,43.13127,43.99609,43.43931,43.99609,43.82431z" class="color2FCBFF svgShape"></path><path d="M43.99176,43.82111v4.97998c0,0.38-0.31,0.70001-0.70001,0.70001h-15.12c-0.40002,0-0.70001-0.32001-0.70001-0.70001
						V47.0011h8.54999c2.47998,0,4.60999-1.62,5.35999-3.87h1.91003C43.68176,43.1311,43.99176,43.4411,43.99176,43.82111z" opacity=".05" fill="#000000" class="color000 svgShape"></path><path fill="#ffbc74" d="M1.48777,15.79671v16.1556c0,1.09471,0.16566,2.17321,0.48366,3.20163
						c0.64186,2.07573,2.00637,3.85375,3.71249,5.19903l5.39129,4.25105h10.63676v-1.08104
						c0-4.28634-2.23419-8.26273-5.89514-10.49212l-0.00001-0.00001c-1.3951-0.84956-2.60677-1.96883-3.56411-3.2923
						l-4.0364-5.58013c-0.47166-0.65456-1.28991-0.92412-2.03107-0.73158l-1.04908-7.87217
						c-0.12131-0.91032-0.89781-1.5902-1.81617-1.5902h0C2.30808,13.96448,1.48777,14.7848,1.48777,15.79671z" class="colorFFBC74 svgShape"></path><path d="M15.82171,33.03107c-1.39996-0.84998-2.60999-1.96997-3.57001-3.28998l-4.03998-5.58002
						c-0.21451-0.30123-0.50193-0.52122-0.82139-0.65236c-0.6437-0.26425-1.37709,0.03006-1.76314,0.60898
						c-0.00502,0.00753-0.01003,0.01509-0.01502,0.02268c-0.3389,0.51572-0.31397,1.19122,0.04734,1.6915l3.63223,5.02922
						c0.95996,1.33002,2.16998,2.45001,3.57001,3.28998c3.64996,2.22003,5.87,6.17999,5.88995,10.45001h2.96002v-1.08002
						C21.71173,39.24109,19.48175,35.26105,15.82171,33.03107z" opacity=".05" fill="#000000" class="color000 svgShape"></path><path fill="#2fcbff" d="M7.00344,43.82431v4.97662c0,0.38506,0.31767,0.70274,0.70268,0.70274h15.12245
						c0.39464,0,0.70268-0.31768,0.70268-0.70274v-4.97662c0-0.385-0.30804-0.69304-0.70268-0.69304H7.70612
						C7.32111,43.13127,7.00344,43.43931,7.00344,43.82431z" class="color2FCBFF svgShape"></path><path d="M23.53124,43.82368v4.97998c0,0.38-0.31,0.70001-0.70001,0.70001h-15.12c-0.40002,0-0.70001-0.32001-0.70001-0.70001
						v-1.79999h8.54999c2.47998,0,4.60999-1.62,5.35999-3.87h1.91003C23.22124,43.13368,23.53124,43.44368,23.53124,43.82368z" opacity=".05" fill="#000000" class="color000 svgShape"></path><g fill="#000000" class="color000 svgShape"><path fill="#ff5975" d="M42.44204,11.16932c0,8.88734-15.9551,20.55127-16.95428,21.27698
					C24.47805,31.72058,8.53347,20.05666,8.53347,11.16932c0-5.34293,4.31217-9.66563,9.66563-9.66563
					c2.90285,0,5.52171,1.30417,7.28865,3.34457c1.76694-2.04041,4.37527-3.34457,7.28865-3.34457
					C38.11934,1.50369,42.44204,5.82639,42.44204,11.16932z" class="colorFF5975 svgShape"></path><path d="M42.43863,11.16688c0,8.88709-15.95171,20.55277-16.95293,21.28394c-0.32621-0.23619-2.22737-1.61992-4.63477-3.68978
					C24.54078,25.94867,36.8139,16.01539,36.8139,8.21953c0-2.55365-0.98996-4.88222-2.60988-6.61468
					C38.87257,2.30231,42.43863,6.30711,42.43863,11.16688z" opacity=".05" fill="#000000" class="color000 svgShape"></path><path fill="#ffffff" d="M26.9271,24.87523c-0.04736,0-0.09521-0.00342-0.14307-0.01025
					c-0.36719-0.05322-0.6748-0.30518-0.79883-0.6543l-4.10645-11.53955l-2.68604,5.5918
					c-0.1665,0.34668-0.51709,0.56689-0.90137,0.56689H10.8441c-0.55225,0-1-0.44775-1-1s0.44775-1,1-1h6.81836l3.45264-7.18799
					c0.1748-0.36377,0.55322-0.58789,0.9541-0.56543c0.40332,0.02148,0.75391,0.2832,0.88916,0.66309l4.27588,12.01563
					l3.28662-4.51416c0.18848-0.2583,0.48877-0.41113,0.80859-0.41113h8.80029c0.55225,0,1,0.44775,1,1s-0.44775,1-1,1h-8.2915
					l-4.10254,5.63428C27.54576,24.72435,27.244,24.87523,26.9271,24.87523z" class="colorFFF svgShape"></path><path fill="#293c66" d="M47.6829 12.96019c-1.41998 0-2.62 1.06-2.81 2.45996l-.92999 6.97003c-.78998.10999-1.5.52997-1.97003 1.17999-3.66934 4.76652-4.31283 6.77462-7.31 8.60999-3.52997 2.15002-5.87 5.88-6.29999 9.95001h-.19c-.94 0-1.70001.76001-1.70001 1.69v4.97998c0 .94.76001 1.70001 1.70001 1.70001h15.12c.94 0 1.70001-.76001 1.70001-1.70001v-4.97998c0-.57001-.27997-1.07001-.71997-1.37l1.65997-1.31c1.97998-1.56 3.38-3.53003 4.04999-5.69.90946-2.93597.37938-4.14923.53003-19.65003C50.51292 14.23015 49.2429 12.96019 47.6829 12.96019zM42.9929 44.13017v4.37H28.47288c0-.11943 0-4.65172 0-4.37C30.57054 44.13017 39.7799 44.13017 42.9929 44.13017zM48.07292 34.86015c-.54999 1.77002-1.72003 3.40002-3.38 4.71002l-3.25 2.56H30.37291c.41998-3.37 2.39001-6.45001 5.33002-8.25 3.47183-2.10139 4.3773-4.60718 7.88995-9.14002.22003-.29999.62006-.44.97003-.34998h.00421c.00201.00055.00348.00214.00549.00262.1123.02832.21729.07715.31104.14502.2002.14453.33203.35889.37256.6084.03955.24121-.01807.48486-.16309.68604l-4.78516 6.62598c-.32373.44775-.22266 1.07275.2251 1.396.44865.32382 1.0732.22197 1.396-.2251l4.78516-6.62598c.45996-.63672.64258-1.41211.51563-2.1792-.12402-.77246-.5415-1.44971-1.17529-1.90771-.04828-.03485-.10254-.05792-.15247-.0896l.00085-.00647.94995-7.13c.06-.41998.41003-.72998.83002-.72998.46002 0 .83002.38.83002.83997C48.37936 31.93133 48.83434 32.3919 48.07292 34.86015zM22.83293 42.13017h-.20001c-.42999-4.07001-2.76001-7.79999-6.29999-9.95001-2.99727-1.83543-3.64226-3.84554-7.31-8.60999-.46002-.65002-1.18005-1.07001-1.97003-1.17999l-.92999-6.97003c-.17999-1.39996-1.39001-2.45996-2.79999-2.45996-1.56 0-2.84003 1.26996-2.84003 2.83997.15529 15.9786-.37291 16.73511.53003 19.65003 1.3281 4.28169 4.84564 6.16997 5.70996 7-.44.29999-.71997.79999-.71997 1.37v4.97998c0 .94.76001 1.70001 1.70001 1.70001h15.13c.92999 0 1.69995-.76001 1.69995-1.70001v-4.97998C24.53288 42.89018 23.76292 42.13017 22.83293 42.13017zM2.92289 34.86015c-.75966-2.46254-.30617-2.89602-.44-19.06 0-.45996.38-.83997.84003-.83997.40997 0 .76996.31.82001.72998l.94995 7.13.00116.00854c-.04907.03113-.10229.05383-.14984.08801C4.31138 23.37425 3.8939 24.0515 3.77086 24.8181c-.12842.77148.0542 1.54736.51465 2.18506l4.78467 6.62598c.32257.44676.94702.54915 1.396.2251.44775-.32324.54883-.94824.2251-1.396L5.9066 25.83226c-.14502-.20117-.20313-.44482-.16211-.69092.03955-.24463.17139-.45898.37061-.60303.09473-.06836.19971-.11768.31201-.146.00165-.00043.00281-.00171.00446-.00214H6.4329c.35999-.09003.76001.04999.97003.34998 3.43268 4.42273 4.38864 7.00682 7.88995 9.14002 2.94 1.79999 4.91003 4.88 5.33002 8.25H9.5529C7.54816 40.31668 4.11919 38.71019 2.92289 34.86015zM22.53288 48.50017H8.00291v-4.37c1.43243 0 11.08996 0 14.52997 0C22.53288 44.27866 22.53288 48.6399 22.53288 48.50017zM43.44291 11.17015c0-9.29469-11.17661-14.16465-17.96002-7.75995C18.76973-2.96074 7.53288 1.80229 7.53288 11.17015c0 9.33002 15.59003 20.81 17.37006 22.09003.17999.12.37994.19.57996.19.21002 0 .42004-.07001.59003-.19C27.85289 31.96019 43.44291 20.37016 43.44291 11.17015zM25.48289 31.21019C19.64293 26.89018 9.53288 17.73015 9.53288 11.17015c0-7.95352 9.9219-11.74782 15.20001-5.66998.19.22003.46002.35004.75.35004.29004 0 .57001-.13.76001-.35004 5.27817-6.07769 15.20001-2.28381 15.20001 5.66998C41.44291 17.63017 31.6829 26.6002 25.48289 31.21019z" class="color293C66 svgShape"></path></g></svg>