<svg width="18" height="18" viewBox="0 0 18 18" fill="none" xmlns="http://www.w3.org/2000/svg">
<path d="M15.579 7.617L14.553 4.53825C14.4042 4.09011 14.1179 3.70028 13.7348 3.42413C13.3518 3.14799 12.8915 2.99958 12.4192 3H5.58075C5.10854 2.99958 4.64821 3.14799 4.26516 3.42413C3.88212 3.70028 3.59584 4.09011 3.447 4.53825L2.421 7.617C2.14846 7.73136 1.91571 7.92357 1.75188 8.16957C1.58806 8.41558 1.50044 8.70444 1.5 9V12.75C1.5 13.3148 1.81725 13.8015 2.27925 14.0573C2.2695 14.1068 2.25 14.1518 2.25 14.2035V15.75C2.25 15.9489 2.32902 16.1397 2.46967 16.2803C2.61032 16.421 2.80109 16.5 3 16.5H3.75C3.94891 16.5 4.13968 16.421 4.28033 16.2803C4.42098 16.1397 4.5 15.9489 4.5 15.75V14.25H13.5V15.75C13.5 15.9489 13.579 16.1397 13.7197 16.2803C13.8603 16.421 14.0511 16.5 14.25 16.5H15C15.1989 16.5 15.3897 16.421 15.5303 16.2803C15.671 16.1397 15.75 15.9489 15.75 15.75V14.2035C15.75 14.1518 15.7305 14.106 15.7207 14.0573C15.9558 13.9291 16.1521 13.7402 16.2892 13.5102C16.4263 13.2803 16.4991 13.0177 16.5 12.75V9C16.5 8.37825 16.119 7.84425 15.579 7.617ZM3 12.75V9H15L15.0015 12.75H3ZM5.58075 4.5H12.4185C12.7417 4.5 13.0282 4.7055 13.1302 5.013L13.9597 7.5H4.04025L4.869 5.013C4.91876 4.8636 5.01429 4.73365 5.14204 4.64157C5.26979 4.54949 5.42328 4.49996 5.58075 4.5Z" fill="#454545"/>
<path d="M4.875 12C5.49632 12 6 11.4963 6 10.875C6 10.2537 5.49632 9.75 4.875 9.75C4.25368 9.75 3.75 10.2537 3.75 10.875C3.75 11.4963 4.25368 12 4.875 12Z" fill="#454545"/>
<path d="M13.125 12C13.7463 12 14.25 11.4963 14.25 10.875C14.25 10.2537 13.7463 9.75 13.125 9.75C12.5037 9.75 12 10.2537 12 10.875C12 11.4963 12.5037 12 13.125 12Z" fill="#454545"/>
</svg>
