<svg width="20" height="20" viewBox="0 0 20 20" fill="none" xmlns="http://www.w3.org/2000/svg">
<path d="M15.8332 1.66666H7.4999C6.58074 1.66666 5.83324 2.41416 5.83324 3.33332V7.98832L1.91074 11.9108C1.79423 12.0274 1.71489 12.1758 1.68275 12.3375C1.65061 12.4991 1.66711 12.6666 1.73017 12.8189C1.79323 12.9711 1.90001 13.1013 2.03702 13.1928C2.17403 13.2844 2.33511 13.3333 2.4999 13.3333V17.5C2.4999 17.721 2.5877 17.933 2.74398 18.0892C2.90026 18.2455 3.11222 18.3333 3.33324 18.3333H16.6666C16.8876 18.3333 17.0995 18.2455 17.2558 18.0892C17.4121 17.933 17.4999 17.721 17.4999 17.5V3.33332C17.4999 2.41416 16.7524 1.66666 15.8332 1.66666ZM9.16657 16.6667H4.16657V12.0117L6.66657 9.51166L9.16657 12.0117V16.6667ZM15.8332 16.6667H10.8332V13.3333C10.9982 13.3337 11.1596 13.285 11.2968 13.1935C11.4341 13.102 11.5411 12.9718 11.6042 12.8194C11.6673 12.667 11.6838 12.4992 11.6514 12.3375C11.619 12.1757 11.5393 12.0272 11.4224 11.9108L7.4999 7.98832V3.33332H15.8332V16.6667Z" fill="#454545"/>
<path d="M9.16659 5H10.8333V6.66667H9.16659V5ZM12.4999 5H14.1666V6.66667H12.4999V5ZM12.4999 8.35917H14.1666V10H12.4999V8.35917ZM12.4999 11.6667H14.1666V13.3333H12.4999V11.6667ZM5.83325 12.5H7.49992V14.1667H5.83325V12.5Z" fill="#454545"/>
</svg>
