<svg width="20" height="20" viewBox="0 0 20 20" fill="none" xmlns="http://www.w3.org/2000/svg">
<path d="M17.5 4.99999H15.8333L14.775 3.94166C14.3922 3.55851 13.8748 3.34019 13.3333 3.33332H11.25C11.1332 2.86565 10.8662 2.44926 10.4898 2.14815C10.1134 1.84704 9.64851 1.67787 9.16663 1.66666V6.96666C9.20945 7.80826 9.54216 8.60913 10.1083 9.23332C11.0404 10.1294 12.2596 10.6667 13.55 10.75L16.425 9.59999C16.7623 9.46458 17.066 9.25724 17.315 8.99242C17.564 8.7276 17.7522 8.41168 17.8666 8.06666L18.3333 6.79166C18.346 6.70601 18.346 6.61897 18.3333 6.53332V5.83332C18.3333 5.61231 18.2455 5.40035 18.0892 5.24407C17.9329 5.08779 17.721 4.99999 17.5 4.99999ZM13.3333 6.66666C13.1685 6.66666 13.0074 6.61778 12.8703 6.52621C12.7333 6.43465 12.6265 6.3045 12.5634 6.15223C12.5003 5.99995 12.4838 5.8324 12.516 5.67075C12.5481 5.5091 12.6275 5.36061 12.744 5.24407C12.8606 5.12752 13.0091 5.04816 13.1707 5.016C13.3324 4.98385 13.4999 5.00035 13.6522 5.06342C13.8045 5.1265 13.9346 5.23331 14.0262 5.37035C14.1178 5.50739 14.1666 5.66851 14.1666 5.83332C14.1666 6.05434 14.0788 6.2663 13.9225 6.42258C13.7663 6.57886 13.5543 6.66666 13.3333 6.66666Z" fill="#454545"/>
<path d="M9.48329 9.78333C8.90198 9.14668 8.52213 8.35219 8.39163 7.5H4.99996C4.77728 7.51473 4.55402 7.48172 4.34513 7.40317C4.13624 7.32462 3.94655 7.20236 3.78874 7.04455C3.63094 6.88675 3.50867 6.69705 3.43012 6.48816C3.35157 6.27927 3.31856 6.05601 3.33329 5.83333C3.33329 5.61232 3.2455 5.40036 3.08922 5.24408C2.93293 5.0878 2.72097 5 2.49996 5C2.27895 5 2.06698 5.0878 1.9107 5.24408C1.75442 5.40036 1.66663 5.61232 1.66663 5.83333C1.675 6.41164 1.81162 6.98088 2.06663 7.5C2.34775 8.0451 2.79005 8.49031 3.33329 8.775V18.3333H5.83329V14.1667H10.8333V18.3333H13.3333V11.5583C11.8796 11.4438 10.5144 10.8144 9.48329 9.78333Z" fill="#454545"/>
</svg>
