<svg width="15" height="15" viewBox="0 0 15 15" fill="none" xmlns="http://www.w3.org/2000/svg">
<path d="M1.5605 8.33349L0.5 9.39399L4.21175 10.9847L5.80325 14.6972L6.86375 13.6367L6.3335 10.9847L8.81825 8.49999L11.5258 14.278L12.53 13.2737L11.6375 5.68149L13.7585 3.55974C13.9018 3.42137 14.016 3.25585 14.0947 3.07284C14.1733 2.88984 14.2146 2.69301 14.2164 2.49384C14.2181 2.29467 14.1802 2.09715 14.1047 1.91281C14.0293 1.72846 13.9179 1.56098 13.7771 1.42014C13.6363 1.27931 13.4688 1.16793 13.2844 1.0925C13.1001 1.01708 12.9026 0.97913 12.7034 0.980861C12.5042 0.982592 12.3074 1.02397 12.1244 1.10258C11.9414 1.1812 11.7759 1.29547 11.6375 1.43874L9.46025 3.61599L1.868 2.72274L0.91925 3.67224L6.65225 6.42474L4.2125 8.86449L1.5605 8.33349Z" fill="#454545"/>
</svg>
