<svg width="114" height="114" viewBox="0 0 114 114" fill="none" xmlns="http://www.w3.org/2000/svg">
<path d="M16.4451 93.3409C16.3251 93.2139 16.2882 93.1401 16.2328 93.11C12.3961 91.8032 10.6312 89.342 10.6312 85.2599C10.6312 69.2519 10.6365 53.2369 10.6473 37.2149C10.6473 36.2475 10.3704 35.6426 9.60679 34.9985C4.01436 30.3 1.04281 24.283 0.855936 16.9501C0.798258 14.6413 0.855913 12.3324 0.832842 10.0374C0.814385 8.77448 1.37272 7.95946 2.48936 7.3961C7.16203 5.08725 11.8255 2.75761 16.4797 0.407194C16.9461 0.143056 17.4724 0.00287293 18.0083 4.36967e-05C18.5443 -0.00278554 19.072 0.131818 19.5412 0.391016C24.1939 2.74143 28.8566 5.07339 33.5292 7.38686C34.6828 7.96176 35.2411 8.82531 35.2273 10.1321C35.1973 13.2375 35.2273 16.3429 35.2273 19.5984H36.4362C56.2404 19.5984 76.0462 19.5984 95.8535 19.5984C101.061 19.5984 104.037 22.5999 104.041 27.8387C104.041 32.9059 104.041 37.9753 104.041 43.0471V44.3586C104.694 44.5895 105.31 44.7603 105.908 44.9843C108.152 45.821 110.098 47.3037 111.501 49.2455C112.904 51.1874 113.701 53.5014 113.791 55.8959C113.867 58.3133 113.831 60.733 113.831 63.1526C113.831 75.5189 113.831 87.8859 113.831 100.254C113.831 106.788 109.788 111.722 103.596 112.828C102.762 112.954 101.918 113.009 101.075 112.992C94.8453 112.992 88.6369 112.968 82.4192 113.008C78.4579 113.033 75.1864 111.622 72.5194 108.686C72.1826 108.316 71.4697 108.125 70.9298 108.125C51.7762 108.097 32.6272 108.088 13.4828 108.097C9.48914 108.097 6.37914 105.636 5.88542 101.824C5.61549 99.7457 5.73085 97.6054 5.8093 95.4974C5.85775 94.216 6.96284 93.3733 8.36788 93.3571C10.675 93.334 12.9821 93.3571 15.2892 93.3571L16.4451 93.3409ZM96.5434 44.22C96.6029 44.071 96.647 43.9163 96.6749 43.7583C96.6749 38.9951 96.7118 34.2343 96.6749 29.4711C96.6587 27.8318 95.6067 26.9452 93.8856 26.9429C73.8122 26.9429 53.7403 26.9367 33.67 26.9244C32.9409 26.9244 32.6664 27.2453 32.2695 27.7879C30.7192 29.9167 29.2219 32.1216 27.4039 34.008C24.8383 36.6701 21.5715 38.3163 18.0254 39.4084C18.0093 39.7177 17.9839 39.9833 17.9839 40.2465C17.9839 54.4952 17.9839 68.7431 17.9839 82.9903C17.9839 85.0821 18.9068 85.978 21.0247 85.978C36.8376 85.978 52.6506 85.978 68.4635 85.978C68.835 85.978 69.2064 85.9456 69.6886 85.9249V84.4864C69.6886 75.3849 69.6817 66.2834 69.6678 57.1819C69.6678 55.2009 69.8778 53.2569 70.7545 51.4652C73.0616 46.7482 76.8545 44.2916 82.1055 44.2293C86.8904 44.1854 91.6869 44.2293 96.5434 44.2293V44.22ZM84.4034 49.0686H82.3961C77.6181 49.0686 74.4966 52.0955 74.4851 56.8656C74.4512 71.3806 74.4428 85.8957 74.4597 100.411C74.4597 105.093 77.6158 108.166 82.3039 108.166C88.5577 108.166 94.813 108.166 101.07 108.166C105.929 108.166 108.995 105.102 108.99 100.258C108.99 85.7425 108.933 71.229 108.99 56.7133C109.006 52.428 105.497 47.9581 99.0489 49.2695C99.0489 49.976 99.0743 50.701 99.0489 51.426C98.9889 52.9821 98.0684 53.9334 96.5111 53.9495C93.3257 53.9818 90.1404 53.9818 86.955 53.9495C85.3816 53.931 84.5072 53.0098 84.4172 51.4098C84.3734 50.6848 84.4034 49.9552 84.4034 49.0732V49.0686ZM40.1645 93.3871C40.1968 96.3424 42.2409 98.2772 45.4062 98.2865C53.1466 98.3096 60.8893 98.2865 68.6319 98.2865C68.9572 98.2865 69.2848 98.2242 69.624 98.1895V93.3802L40.1645 93.3871ZM15.5199 20.9168C14.4748 19.8547 13.5289 18.8388 12.5207 17.8945C11.381 16.8024 9.83058 16.7977 8.8293 17.8298C7.8557 18.8226 7.85339 20.3418 8.91235 21.4501C10.3681 22.9739 11.8539 24.477 13.3789 25.9316C15.0239 27.4993 16.2328 27.4554 17.8293 25.86C20.8147 22.877 23.7955 19.8893 26.7717 16.897C26.9961 16.688 27.2022 16.4602 27.3877 16.2159C28.0245 15.3201 28.1121 14.355 27.5584 13.4084C26.9747 12.4156 26.0219 11.9376 24.9214 12.2308C24.2382 12.4575 23.6205 12.8474 23.1219 13.3668C20.5979 15.8281 18.1154 18.3355 15.5199 20.9214V20.9168Z" fill="url(#paint0_linear_727_1161)"/>
<defs>
<linearGradient id="paint0_linear_727_1161" x1="57.3344" y1="0" x2="57.3344" y2="113.008" gradientUnits="userSpaceOnUse">
<stop stop-color="#3E4095"/>
<stop offset="1" stop-color="#219653"/>
</linearGradient>
</defs>
</svg>
