<svg width="85" height="88" viewBox="0 0 85 88" fill="none" xmlns="http://www.w3.org/2000/svg">
<path fill-rule="evenodd" clip-rule="evenodd" d="M36.8477 2.01841C38.8842 0.784935 41.2197 0.132812 43.6006 0.132812C45.9815 0.132812 48.317 0.784935 50.3535 2.01841L55.149 4.9517C61.8772 9.06442 69.54 9.9802 77.2381 10.903C79.7265 11.202 82.2172 11.4986 84.682 11.9059C84.682 11.9059 84.7361 16.2234 84.6796 18.1821L84.1876 35.0168C83.7639 49.4549 77.3441 63.1443 66.3313 73.093C61.1356 77.7849 55.7611 82.0247 49.5861 85.5466C47.7664 86.5761 45.726 87.1534 43.6366 87.23C41.5473 87.3067 39.4701 86.8803 37.5798 85.9868C30.4491 82.5968 24.1352 78.2981 18.3698 73.093C7.35703 63.1443 0.937219 49.4549 0.515823 35.0168L0.0261574 18.2363C-0.0326968 16.247 0.0261574 11.9059 0.0261574 11.9059C2.0272 11.6705 4.06591 11.4751 6.1211 11.2797C15.1917 10.4181 24.5636 9.5282 32.2523 4.82928L36.85 2.01841H36.8477ZM37.6222 37.8017V21.3226H47.0389V37.8017H63.518V47.2184H47.0389V63.6976H37.6222V47.2184H21.143V37.8017H37.6222Z" fill="url(#paint0_linear_727_1150)"/>
<defs>
<linearGradient id="paint0_linear_727_1150" x1="42.3527" y1="0.132812" x2="42.3527" y2="87.2388" gradientUnits="userSpaceOnUse">
<stop stop-color="#3E4095"/>
<stop offset="1" stop-color="#219653"/>
</linearGradient>
</defs>
</svg>
