<svg width="114" height="114" viewBox="0 0 114 114" fill="none" xmlns="http://www.w3.org/2000/svg">
<path d="M0.830536 32.223C4.92153 29.8955 9.01253 27.5858 13.0991 25.2405C27.5201 16.9521 41.9314 8.65264 56.3332 0.341992C57.0563 -0.0767326 57.5693 -0.103486 58.3101 0.315239C76.539 10.8338 94.7724 21.3421 113.01 31.8399C113.375 32.0515 113.791 32.5749 113.795 32.9535C113.846 38.1007 113.828 43.2501 113.824 48.3973C113.805 48.5437 113.774 48.6882 113.731 48.8294C111.681 47.7403 109.68 46.6779 107.679 45.611C91.2217 36.8505 74.7692 28.0758 58.3212 19.287C57.5627 18.8817 57.0253 18.9307 56.3089 19.316C38.5443 28.8412 20.774 38.3516 2.99764 47.8472C2.29001 48.2258 1.55365 48.5443 0.830536 48.8918V32.223Z" fill="url(#paint0_linear_727_1179)"/>
<path d="M30.613 66.6764C33.6956 66.6764 36.5262 66.9905 38.7618 64.6942C40.9599 62.4357 40.584 59.6093 40.6216 56.7852H74.0505C74.0505 57.587 74.0992 58.4222 74.0505 59.2485C73.7166 63.9258 77.3676 67.0127 81.3989 66.6875C82.195 66.623 82.9999 66.6875 83.8313 66.6875C83.8698 66.9347 83.8949 67.1838 83.9066 67.4337C83.8889 71.9127 83.9862 76.3984 83.8181 80.8729C83.2609 95.7354 72.1665 109.382 57.8281 112.966C57.4797 113.046 57.117 113.041 56.7711 112.95C43.1757 109.424 32.5324 97.3012 31.0995 83.2339C30.5467 77.7971 30.7545 72.2913 30.613 66.6764ZM69.9905 78.2581L65.3113 73.5431L53.6044 85.4121C52.0941 83.8219 50.6014 82.2516 49.2503 80.8262L44.7082 85.3809C47.7244 88.4055 50.8115 91.5015 53.8433 94.5461L69.9905 78.2581Z" fill="url(#paint1_linear_727_1179)"/>
<path d="M29.5294 101.974H17.367V100.725C17.367 84.127 17.3619 67.5302 17.3515 50.9341C17.3515 50.159 17.4975 49.6757 18.2515 49.2726C30.9182 42.5329 43.5708 35.7657 56.2094 28.9711C56.9612 28.568 57.5362 28.5257 58.319 28.9488C70.9326 35.7093 83.5601 42.4438 96.2017 49.1523C96.8341 49.4886 97.1946 49.8071 97.1923 50.6401C97.1614 67.4188 97.1533 84.1975 97.168 100.976C97.168 101.268 97.1393 101.56 97.1194 101.941H84.9569C85.0962 101.627 85.1913 101.359 85.3262 101.11C88.7208 94.9238 90.5034 87.9721 90.5074 80.9041C90.545 74.9395 90.5074 68.9749 90.5074 63.0103C90.5074 62.723 90.4632 62.4357 90.4322 62.0481C87.6128 62.0481 84.7756 62.3288 82.5399 60.0681C80.3043 57.8074 80.5917 55.0189 80.647 52.1591H33.8968C33.8968 53.05 33.8968 54.0055 33.8968 54.9521C33.8703 59.2463 31.1017 62.0259 26.836 62.0415H24.1581C24.0939 62.224 24.0494 62.4128 24.0254 62.6049C24.0497 69.4582 23.9701 76.3137 24.1448 83.1625C24.3062 89.4813 26.135 95.3947 29.1115 100.954C29.2331 101.177 29.3614 101.399 29.4764 101.638C29.5047 101.748 29.5224 101.86 29.5294 101.974Z" fill="url(#paint2_linear_727_1179)"/>
<defs>
<linearGradient id="paint0_linear_727_1179" x1="57.3305" y1="0.0142517" x2="57.3305" y2="48.8918" gradientUnits="userSpaceOnUse">
<stop stop-color="#3E4095"/>
<stop offset="1" stop-color="#219653"/>
</linearGradient>
<linearGradient id="paint1_linear_727_1179" x1="57.2659" y1="56.7852" x2="57.2659" y2="113.023" gradientUnits="userSpaceOnUse">
<stop stop-color="#3E4095"/>
<stop offset="1" stop-color="#219653"/>
</linearGradient>
<linearGradient id="paint2_linear_727_1179" x1="57.2719" y1="28.6496" x2="57.2719" y2="101.974" gradientUnits="userSpaceOnUse">
<stop stop-color="#3E4095"/>
<stop offset="1" stop-color="#219653"/>
</linearGradient>
</defs>
</svg>
