<svg width="83" height="58" viewBox="0 0 83 58" fill="none" xmlns="http://www.w3.org/2000/svg">
<g clip-path="url(#clip0_284_1169)">
<path d="M0.00195312 45.4511H1.90705C2.96166 45.4511 3.67607 45.5532 4.15235 45.7233C4.5946 45.9275 4.96882 46.2337 5.24097 46.6761C5.47911 47.0844 5.61519 47.5949 5.61519 48.2074C5.61519 48.8539 5.44509 49.3984 5.1049 49.8407C4.7647 50.2831 4.28842 50.5893 3.71009 50.7595C3.33588 50.8616 2.72352 50.8956 1.80499 50.8956V54.9109H0.00195312V45.4511ZM1.80499 49.1602H2.38333C2.82558 49.1602 3.13176 49.1261 3.30186 49.0581C3.50597 48.99 3.64205 48.8879 3.74411 48.7178C3.84617 48.5817 3.88019 48.4115 3.88019 48.2074C3.88019 47.8331 3.74411 47.5608 3.47195 47.3907C3.26784 47.2546 2.8596 47.1865 2.31529 47.1865H1.80499V49.1602ZM12.3851 47.9011H14.1201V54.9109H12.3851V54.1623C12.0449 54.5026 11.6707 54.7067 11.3305 54.8769C10.9903 55.013 10.6161 55.081 10.2078 55.081C9.32333 55.081 8.54088 54.7408 7.86049 54.0262C7.21411 53.3456 6.87392 52.4609 6.87392 51.44C6.87392 50.3511 7.21411 49.4664 7.82647 48.7858C8.47284 48.0713 9.25529 47.731 10.1738 47.731C10.5821 47.731 10.9903 47.8331 11.3645 47.9692C11.7047 48.1393 12.0449 48.3775 12.3851 48.6838V47.9011ZM10.514 49.3643C9.9697 49.3643 9.52745 49.5345 9.18725 49.9088C8.81303 50.3171 8.64294 50.7935 8.64294 51.406C8.64294 52.0185 8.81303 52.4949 9.18725 52.9032C9.56147 53.2776 10.0037 53.4817 10.548 53.4817C11.0923 53.4817 11.5346 53.2776 11.9088 52.9032C12.283 52.5289 12.4531 52.0185 12.4531 51.406C12.4531 50.7935 12.283 50.2831 11.9088 49.9088C11.5346 49.5345 11.0923 49.3643 10.514 49.3643ZM21.0601 45.2129H22.8291V54.9109H21.0601V54.1623C20.7199 54.5026 20.3797 54.7067 20.0395 54.8769C19.6993 55.013 19.3251 55.081 18.9169 55.081C17.9983 55.081 17.2159 54.7408 16.5695 54.0262C15.8891 53.3456 15.5829 52.4609 15.5829 51.44C15.5829 50.3511 15.8891 49.4664 16.5355 48.7858C17.1819 48.0713 17.9643 47.731 18.8488 47.731C19.2911 47.731 19.6653 47.8331 20.0395 47.9692C20.4137 48.1393 20.7539 48.3775 21.0601 48.6838V45.2129ZM19.223 49.3643C18.6787 49.3643 18.2365 49.5345 17.8623 49.9088C17.5221 50.3171 17.3179 50.7935 17.3179 51.406C17.3179 52.0185 17.5221 52.4949 17.8623 52.9032C18.2365 53.2776 18.6787 53.4817 19.223 53.4817C19.7674 53.4817 20.2436 53.2776 20.5838 52.9032C20.958 52.5289 21.1622 52.0185 21.1622 51.406C21.1622 50.7935 20.958 50.2831 20.5838 49.9088C20.2436 49.5345 19.7674 49.3643 19.223 49.3643ZM29.7691 45.2129H31.5041V54.9109H29.7691V54.1623C29.4289 54.5026 29.0887 54.7067 28.7485 54.8769C28.3743 55.013 28.0001 55.081 27.6259 55.081C26.7074 55.081 25.9249 54.7408 25.2785 54.0262C24.5981 53.3456 24.2579 52.4609 24.2579 51.44C24.2579 50.3511 24.5981 49.4664 25.2445 48.7858C25.8569 48.0713 26.6393 47.731 27.5578 47.731C27.9661 47.731 28.3743 47.8331 28.7485 47.9692C29.1227 48.1393 29.4629 48.3775 29.7691 48.6838V45.2129ZM27.9321 49.3643C27.3877 49.3643 26.9115 49.5345 26.5713 49.9088C26.1971 50.3171 26.027 50.7935 26.027 51.406C26.027 52.0185 26.1971 52.4949 26.5713 52.9032C26.9455 53.2776 27.3877 53.4817 27.9321 53.4817C28.4764 53.4817 28.9186 53.2776 29.2928 52.9032C29.6671 52.5289 29.8372 52.0185 29.8372 51.406C29.8372 50.7935 29.6671 50.2831 29.2928 49.9088C28.9186 49.5345 28.4764 49.3643 27.9321 49.3643ZM32.4907 47.9011H34.2937L36.1308 52.2907L38.1379 47.9011H39.907L35.5525 57.463H33.7494L35.1782 54.4005L32.4907 47.9011ZM53.5148 47.1185L52.2561 48.3095C51.3716 47.3907 50.419 46.9483 49.3304 46.9483C48.4459 46.9483 47.6634 47.2546 47.0511 47.8671C46.4387 48.4796 46.1326 49.2622 46.1326 50.147C46.1326 50.7935 46.2686 51.338 46.5408 51.8484C46.813 52.3248 47.1872 52.6991 47.6975 53.0053C48.2078 53.2776 48.7521 53.4137 49.3644 53.4137C49.9087 53.4137 50.385 53.3116 50.8273 53.1074C51.2355 52.9032 51.7118 52.563 52.2561 52.0525L53.4468 53.3116C52.7664 54.0262 52.12 54.4685 51.4736 54.7408C50.8613 55.013 50.1469 55.1491 49.3644 55.1491C47.8676 55.1491 46.6769 54.6727 45.7243 53.754C44.8058 52.8012 44.3295 51.6102 44.3295 50.147C44.3295 49.2282 44.5336 48.3775 44.9759 47.6629C45.4181 46.9143 45.9965 46.3358 46.813 45.8935C47.5954 45.4511 48.4459 45.2129 49.3644 45.2129C50.1469 45.2129 50.8953 45.383 51.6437 45.6893C52.3581 46.0296 52.9705 46.506 53.5148 47.1185ZM58.1755 47.731C58.8219 47.731 59.4682 47.9011 60.0466 48.2414C60.6249 48.5817 61.0672 49.024 61.4074 49.5685C61.7135 50.147 61.8836 50.7595 61.8836 51.406C61.8836 52.0525 61.7135 52.6651 61.4074 53.2435C61.0672 53.822 60.6249 54.2644 60.0466 54.6047C59.5023 54.9109 58.8559 55.081 58.1755 55.081C57.1889 55.081 56.3044 54.7408 55.624 54.0262C54.9096 53.3116 54.5354 52.4269 54.5354 51.406C54.5354 50.3171 54.9436 49.4324 55.7601 48.6838C56.4405 48.0713 57.257 47.731 58.1755 47.731ZM58.2095 49.3984C57.6652 49.3984 57.1889 49.5685 56.8487 49.9428C56.4745 50.3511 56.3044 50.8275 56.3044 51.406C56.3044 52.0185 56.4745 52.4949 56.8147 52.8692C57.1889 53.2435 57.6312 53.4477 58.2095 53.4477C58.7538 53.4477 59.1961 53.2435 59.5703 52.8692C59.9445 52.4949 60.1146 52.0185 60.1146 51.406C60.1146 50.7935 59.9445 50.3171 59.5703 49.9428C59.2301 49.5685 58.7538 49.3984 58.2095 49.3984ZM62.564 47.9011H64.3671L66.1361 52.0525L67.9051 47.9011H69.6741L66.6804 54.9109H65.5578L62.564 47.9011ZM77.7028 51.9164H72.0555C72.1576 52.3928 72.3617 52.8012 72.7019 53.1074C73.0761 53.3796 73.5183 53.5498 74.0627 53.5498C74.709 53.5498 75.2874 53.3116 75.7296 52.8352L77.2265 53.5498C76.8523 54.0602 76.41 54.4685 75.8997 54.7067C75.3894 54.9449 74.7771 55.081 74.0627 55.081C72.974 55.081 72.0895 54.7408 71.4091 54.0602C70.6947 53.3456 70.3545 52.4949 70.3545 51.44C70.3545 50.3852 70.6947 49.5004 71.4091 48.7858C72.0895 48.1053 72.94 47.731 73.9946 47.731C75.0833 47.731 75.9678 48.1053 76.6822 48.7858C77.3626 49.5004 77.7028 50.4192 77.7028 51.5762V51.9164ZM75.9337 50.5213C75.8317 50.147 75.5935 49.8407 75.2533 49.6025C74.9132 49.3643 74.5389 49.2282 74.0627 49.2282C73.5864 49.2282 73.1441 49.3643 72.7699 49.6365C72.5658 49.8067 72.3277 50.1129 72.1576 50.5213H75.9337ZM78.7234 47.9011H80.2202V48.7858C80.3903 48.4456 80.6284 48.2074 80.8666 48.0032C81.1387 47.8331 81.4449 47.731 81.7511 47.731C81.9892 47.731 82.2274 47.799 82.4655 47.9351L81.9212 49.4324C81.7171 49.3303 81.547 49.2963 81.4109 49.2963C81.1728 49.2963 80.9346 49.4664 80.7305 49.7727C80.5604 50.1129 80.4584 50.7595 80.4584 51.7463V52.0866V54.9109H78.7234V47.9011Z" fill="#3E4095"/>
<path fill-rule="evenodd" clip-rule="evenodd" d="M41.2337 0.667236C63.9929 0.667236 82.4655 19.1445 82.4655 41.9094C82.4655 39.3913 78.4852 37.3496 73.6204 37.3496C68.7216 37.3496 64.7413 39.3913 64.7413 41.9094H63.8908C63.8908 39.3913 58.8899 37.3496 52.7324 37.3496C46.5748 37.3496 41.6079 39.3913 41.6079 41.9094H40.6554C40.6554 39.3913 35.7566 37.3496 29.6671 37.3496C23.5775 37.3496 18.6787 39.3913 18.6787 41.9094H17.8282C17.8282 39.3913 13.8139 37.3496 8.91509 37.3496C3.98225 37.3496 0.00195312 39.3913 0.00195312 41.9094C0.00195312 19.1445 18.4746 0.667236 41.2337 0.667236Z" fill="#00A859"/>
<path d="M64.299 41.9117C65.0474 19.2149 53.1406 0.125119 41.2337 0.669569C29.3268 0.125119 17.454 19.2149 18.1684 41.9117" stroke="#3E4095" stroke-width="0.502199"/>
<path d="M41.2329 41.9121V0.669922" stroke="#3E4095" stroke-width="0.502199"/>
</g>
<defs>
<clipPath id="clip0_284_1169">
<rect width="82.4679" height="57.2694" fill="white" transform="translate(0 0.192871)"/>
</clipPath>
</defs>
</svg>
